<?xml version="1.0" encoding="utf-8"?>
<!-- Generator: Adobe Illustrator 22.1.0, SVG Export Plug-In . SVG Version: 6.00 Build 0)  -->
<svg version="1.1" id="Layer_1" xmlns="http://www.w3.org/2000/svg" xmlns:xlink="http://www.w3.org/1999/xlink" x="0px" y="0px"
	 viewBox="0 0 600 371" style="enable-background:new 0 0 600 371;" xml:space="preserve">
<style type="text/css">
	.st0{fill:#FFFFFF;}
	.st1{display:none;fill:none;stroke:#333333;stroke-miterlimit:10;}
	.st2{display:none;fill:none;stroke:#CCCCCC;stroke-miterlimit:10;}
	.st3{clip-path:url(#SVGID_2_);fill:none;}
	.st4{clip-path:url(#SVGID_4_);fill:#EED9BC;}
	.st5{clip-path:url(#SVGID_6_);fill:none;}
	.st6{clip-path:url(#SVGID_8_);fill:#EED9BC;}
	.st7{clip-path:url(#SVGID_10_);fill:none;}
	.st8{clip-path:url(#SVGID_12_);fill:#EED9BC;}
	.st9{clip-path:url(#SVGID_14_);fill:none;}
	.st10{clip-path:url(#SVGID_16_);fill:#B3A38D;}
	.st11{clip-path:url(#SVGID_18_);fill:none;}
	.st12{clip-path:url(#SVGID_20_);fill:#B3A38D;}
	.st13{clip-path:url(#SVGID_22_);fill:none;}
	.st14{clip-path:url(#SVGID_24_);fill:#B3A38D;}
	.st15{clip-path:url(#SVGID_26_);fill:none;}
	.st16{clip-path:url(#SVGID_28_);fill:#DAE1DD;}
	.st17{clip-path:url(#SVGID_30_);fill:none;}
	.st18{clip-path:url(#SVGID_32_);fill:#DAE1DD;}
	.st19{clip-path:url(#SVGID_34_);fill:none;}
	.st20{clip-path:url(#SVGID_36_);fill:#DAE1DD;}
	.st21{clip-path:url(#SVGID_38_);fill:none;}
	.st22{clip-path:url(#SVGID_40_);fill:#A7C6C6;}
	.st23{clip-path:url(#SVGID_42_);fill:none;}
	.st24{clip-path:url(#SVGID_44_);fill:#A7C6C6;}
	.st25{clip-path:url(#SVGID_46_);fill:none;}
	.st26{clip-path:url(#SVGID_48_);fill:#A7C6C6;}
	.st27{clip-path:url(#SVGID_50_);fill:none;}
	.st28{clip-path:url(#SVGID_52_);fill:#ADB2A4;}
	.st29{clip-path:url(#SVGID_54_);fill:none;}
	.st30{clip-path:url(#SVGID_56_);fill:#ADB2A4;}
	.st31{clip-path:url(#SVGID_58_);fill:none;}
	.st32{clip-path:url(#SVGID_60_);fill:#ADB2A4;}
	.st33{clip-path:url(#SVGID_62_);fill:none;}
	.st34{clip-path:url(#SVGID_64_);fill:#5F6553;}
	.st35{clip-path:url(#SVGID_66_);fill:none;}
	.st36{clip-path:url(#SVGID_68_);fill:#5F6553;}
	.st37{clip-path:url(#SVGID_70_);fill:none;}
	.st38{clip-path:url(#SVGID_72_);fill:#5F6553;}
	.st39{display:none;fill:#4285F4;}
	.st40{display:none;fill:#757575;}
	.st41{display:none;fill:#DB4437;}
	.st42{display:none;fill:#F4B400;}
	.st43{fill:#757575;}
	.st44{font-family:'Oswald-Medium';}
	.st45{font-size:16px;}
	.st46{fill:#EED9BC;}
	.st47{fill:#DAE1DD;}
	.st48{fill:#ADB2A4;}
	.st49{font-family:'Oswald-Regular';}
	.st50{font-size:9px;}
	.st51{font-size:12px;}
	.st52{opacity:0.76;fill:none;stroke:#757575;stroke-width:0.5;stroke-miterlimit:10;}
	.st53{font-size:8px;}
</style>
<rect x="0.8" y="20.6" class="st0" width="599" height="345.9"/>
<g id="Layer_3">
	<path class="st1" d="M442.8,466.1v-536"/>
	<path class="st2" d="M44.8,309.1h536"/>
	<path class="st2" d="M44.8,270.1h536"/>
	<path class="st2" d="M44.8,230.1h536"/>
	<path class="st2" d="M44.8,190.1h536"/>
	<path class="st2" d="M44.8,150.1h536"/>
	<path class="st2" d="M44.8,111.1h536"/>
	<path class="st2" d="M44.8,71.1h536"/>
	<g>
		<g>
			<g>
				<g>
					<g>
						<defs>
							<rect id="SVGID_1_" x="76.7" y="72.1" width="278" height="535.9"/>
						</defs>
						<clipPath id="SVGID_2_">
							<use xlink:href="#SVGID_1_"  style="overflow:visible;"/>
						</clipPath>
						<path class="st3" d="M339.3,119.5c-1.1,0-2-0.9-2-2v-13c0-1.1,0.9-2,2-2h15v17H339.3z"/>
					</g>
				</g>
			</g>
		</g>
	</g>
	<g>
		<g>
			<g>
				<g>
					<g>
						<defs>
							<rect id="SVGID_3_" x="76.7" y="72.1" width="278" height="535.9"/>
						</defs>
						<clipPath id="SVGID_4_">
							<use xlink:href="#SVGID_3_"  style="overflow:visible;"/>
						</clipPath>
						<path class="st4" d="M339.3,119.5c-1.1,0-2-0.9-2-2v-13c0-1.1,0.9-2,2-2h15v17H339.3z"/>
					</g>
				</g>
			</g>
		</g>
	</g>
	<g>
		<g>
			<g>
				<g>
					<g>
						<defs>
							<rect id="SVGID_5_" x="76.7" y="72.1" width="278" height="535.9"/>
						</defs>
						<clipPath id="SVGID_6_">
							<use xlink:href="#SVGID_5_"  style="overflow:visible;"/>
						</clipPath>
						<path class="st5" d="M321.3,203.5c-1.1,0-2-0.9-2-2v-13c0-1.1,0.9-2,2-2h33v17H321.3z"/>
					</g>
				</g>
			</g>
		</g>
	</g>
	<g>
		<g>
			<g>
				<g>
					<g>
						<defs>
							<rect id="SVGID_7_" x="76.7" y="72.1" width="278" height="535.9"/>
						</defs>
						<clipPath id="SVGID_8_">
							<use xlink:href="#SVGID_7_"  style="overflow:visible;"/>
						</clipPath>
						<path class="st6" d="M321.3,203.5c-1.1,0-2-0.9-2-2v-13c0-1.1,0.9-2,2-2h33v17H321.3z"/>
					</g>
				</g>
			</g>
		</g>
	</g>
	<g>
		<g>
			<g>
				<g>
					<g>
						<defs>
							<rect id="SVGID_9_" x="76.7" y="72.1" width="278" height="535.9"/>
						</defs>
						<clipPath id="SVGID_10_">
							<use xlink:href="#SVGID_9_"  style="overflow:visible;"/>
						</clipPath>
						<path class="st7" d="M310.3,287.5c-1.1,0-2-0.9-2-2v-13c0-1.1,0.9-2,2-2h44v17H310.3z"/>
					</g>
				</g>
			</g>
		</g>
	</g>
	<g>
		<g>
			<g>
				<g>
					<g>
						<defs>
							<rect id="SVGID_11_" x="76.7" y="72.1" width="278" height="535.9"/>
						</defs>
						<clipPath id="SVGID_12_">
							<use xlink:href="#SVGID_11_"  style="overflow:visible;"/>
						</clipPath>
						<path class="st8" d="M310.3,287.5c-1.1,0-2-0.9-2-2v-13c0-1.1,0.9-2,2-2h44v17H310.3z"/>
					</g>
				</g>
			</g>
		</g>
	</g>
	<g>
		<g>
			<g>
				<g>
					<g>
						<defs>
							<rect id="SVGID_13_" x="353.7" y="-180.9" width="278" height="535.9"/>
						</defs>
						<clipPath id="SVGID_14_">
							<use xlink:href="#SVGID_13_"  style="overflow:visible;"/>
						</clipPath>
						<path class="st9" d="M354.2,119.5v-17h0.5c0.3,0,0.5,0.2,0.5,0.5v16c0,0.3-0.2,0.5-0.5,0.5H354.2z"/>
					</g>
				</g>
			</g>
		</g>
	</g>
	<g>
		<g>
			<g>
				<g>
					<g>
						<defs>
							<rect id="SVGID_15_" x="353.7" y="-180.9" width="278" height="535.9"/>
						</defs>
						<clipPath id="SVGID_16_">
							<use xlink:href="#SVGID_15_"  style="overflow:visible;"/>
						</clipPath>
						<path class="st10" d="M354.8,119.5v-17h0.5c0.3,0,0.5,0.2,0.5,0.5v16c0,0.3-0.2,0.5-0.5,0.5H354.8z"/>
					</g>
				</g>
			</g>
		</g>
	</g>
	<g>
		<g>
			<g>
				<g>
					<g>
						<defs>
							<rect id="SVGID_17_" x="353.7" y="-180.9" width="278" height="535.9"/>
						</defs>
						<clipPath id="SVGID_18_">
							<use xlink:href="#SVGID_17_"  style="overflow:visible;"/>
						</clipPath>
						<path class="st11" d="M354.2,203.5v-17h2c1.1,0,2,0.9,2,2v13c0,1.1-0.9,2-2,2H354.2z"/>
					</g>
				</g>
			</g>
		</g>
	</g>
	<g>
		<g>
			<g>
				<g>
					<g>
						<defs>
							<rect id="SVGID_19_" x="353.7" y="-180.9" width="278" height="535.9"/>
						</defs>
						<clipPath id="SVGID_20_">
							<use xlink:href="#SVGID_19_"  style="overflow:visible;"/>
						</clipPath>
						<path class="st12" d="M354.7,203.5v-17h2c1.1,0,2,0.9,2,2v13c0,1.1-0.9,2-2,2H354.7z"/>
					</g>
				</g>
			</g>
		</g>
	</g>
	<g>
		<g>
			<g>
				<g>
					<g>
						<defs>
							<rect id="SVGID_21_" x="353.7" y="-180.9" width="278" height="535.9"/>
						</defs>
						<clipPath id="SVGID_22_">
							<use xlink:href="#SVGID_21_"  style="overflow:visible;"/>
						</clipPath>
						<path class="st13" d="M354.2,287.5v-17h5c1.1,0,2,0.9,2,2v13c0,1.1-0.9,2-2,2H354.2z"/>
					</g>
				</g>
			</g>
		</g>
	</g>
	<g>
		<g>
			<g>
				<g>
					<g>
						<defs>
							<rect id="SVGID_23_" x="353.7" y="-180.9" width="278" height="535.9"/>
						</defs>
						<clipPath id="SVGID_24_">
							<use xlink:href="#SVGID_23_"  style="overflow:visible;"/>
						</clipPath>
						<path class="st14" d="M354.7,287.5v-17h5c1.1,0,2,0.9,2,2v13c0,1.1-0.9,2-2,2H354.7z"/>
					</g>
				</g>
			</g>
		</g>
	</g>
	<g>
		<g>
			<g>
				<g>
					<g>
						<defs>
							<rect id="SVGID_25_" x="76.7" y="72.1" width="278" height="535.9"/>
						</defs>
						<clipPath id="SVGID_26_">
							<use xlink:href="#SVGID_25_"  style="overflow:visible;"/>
						</clipPath>
						<path class="st15" d="M250.3,137.5c-1.1,0-2-0.9-2-2v-13c0-1.1,0.9-2,2-2h104v17H250.3z"/>
					</g>
				</g>
			</g>
		</g>
	</g>
	<g>
		<g>
			<g>
				<g>
					<g>
						<defs>
							<rect id="SVGID_27_" x="76.7" y="72.1" width="278" height="535.9"/>
						</defs>
						<clipPath id="SVGID_28_">
							<use xlink:href="#SVGID_27_"  style="overflow:visible;"/>
						</clipPath>
						<path class="st16" d="M250.3,137.5c-1.1,0-2-0.9-2-2v-13c0-1.1,0.9-2,2-2h104v17H250.3z"/>
					</g>
				</g>
			</g>
		</g>
	</g>
	<g>
		<g>
			<g>
				<g>
					<g>
						<defs>
							<rect id="SVGID_29_" x="76.7" y="72.1" width="278" height="535.9"/>
						</defs>
						<clipPath id="SVGID_30_">
							<use xlink:href="#SVGID_29_"  style="overflow:visible;"/>
						</clipPath>
						<path class="st17" d="M123.3,221.5c-1.1,0-2-0.9-2-2v-13c0-1.1,0.9-2,2-2h231v17H123.3z"/>
					</g>
				</g>
			</g>
		</g>
	</g>
	<g>
		<g>
			<g>
				<g>
					<g>
						<defs>
							<rect id="SVGID_31_" x="76.7" y="72.1" width="278" height="535.9"/>
						</defs>
						<clipPath id="SVGID_32_">
							<use xlink:href="#SVGID_31_"  style="overflow:visible;"/>
						</clipPath>
						<path class="st18" d="M123.3,221.5c-1.1,0-2-0.9-2-2v-13c0-1.1,0.9-2,2-2h231v17H123.3z"/>
					</g>
				</g>
			</g>
		</g>
	</g>
	<g>
		<g>
			<g>
				<g>
					<g>
						<defs>
							<rect id="SVGID_33_" x="76.7" y="72.1" width="278" height="535.9"/>
						</defs>
						<clipPath id="SVGID_34_">
							<use xlink:href="#SVGID_33_"  style="overflow:visible;"/>
						</clipPath>
						<path class="st19" d="M101.3,305.5c-1.1,0-2-0.9-2-2v-13c0-1.1,0.9-2,2-2h253v17H101.3z"/>
					</g>
				</g>
			</g>
		</g>
	</g>
	<g>
		<g>
			<g>
				<g>
					<g>
						<defs>
							<rect id="SVGID_35_" x="76.7" y="72.1" width="278" height="535.9"/>
						</defs>
						<clipPath id="SVGID_36_">
							<use xlink:href="#SVGID_35_"  style="overflow:visible;"/>
						</clipPath>
						<path class="st20" d="M101.3,305.5c-1.1,0-2-0.9-2-2v-13c0-1.1,0.9-2,2-2h253v17H101.3z"/>
					</g>
				</g>
			</g>
		</g>
	</g>
	<g>
		<g>
			<g>
				<g>
					<g>
						<defs>
							<rect id="SVGID_37_" x="353.7" y="-180.9" width="278" height="535.9"/>
						</defs>
						<clipPath id="SVGID_38_">
							<use xlink:href="#SVGID_37_"  style="overflow:visible;"/>
						</clipPath>
						<path class="st21" d="M354.2,137.5v-17h6c1.1,0,2,0.9,2,2v13c0,1.1-0.9,2-2,2H354.2z"/>
					</g>
				</g>
			</g>
		</g>
	</g>
	<g>
		<g>
			<g>
				<g>
					<g>
						<defs>
							<rect id="SVGID_39_" x="353.7" y="-180.9" width="278" height="535.9"/>
						</defs>
						<clipPath id="SVGID_40_">
							<use xlink:href="#SVGID_39_"  style="overflow:visible;"/>
						</clipPath>
						<path class="st22" d="M354.7,137.5v-17h6c1.1,0,2,0.9,2,2v13c0,1.1-0.9,2-2,2H354.7z"/>
					</g>
				</g>
			</g>
		</g>
	</g>
	<g>
		<g>
			<g>
				<g>
					<g>
						<defs>
							<rect id="SVGID_41_" x="353.7" y="-180.9" width="278" height="535.9"/>
						</defs>
						<clipPath id="SVGID_42_">
							<use xlink:href="#SVGID_41_"  style="overflow:visible;"/>
						</clipPath>
						<path class="st23" d="M354.2,221.5v-17h26c1.1,0,2,0.9,2,2v13c0,1.1-0.9,2-2,2H354.2z"/>
					</g>
				</g>
			</g>
		</g>
	</g>
	<g>
		<g>
			<g>
				<g>
					<g>
						<defs>
							<rect id="SVGID_43_" x="353.7" y="-180.9" width="278" height="535.9"/>
						</defs>
						<clipPath id="SVGID_44_">
							<use xlink:href="#SVGID_43_"  style="overflow:visible;"/>
						</clipPath>
						<path class="st24" d="M354.7,221.5v-17h26c1.1,0,2,0.9,2,2v13c0,1.1-0.9,2-2,2H354.7z"/>
					</g>
				</g>
			</g>
		</g>
	</g>
	<g>
		<g>
			<g>
				<g>
					<g>
						<defs>
							<rect id="SVGID_45_" x="353.7" y="-180.9" width="278" height="535.9"/>
						</defs>
						<clipPath id="SVGID_46_">
							<use xlink:href="#SVGID_45_"  style="overflow:visible;"/>
						</clipPath>
						<path class="st25" d="M354.2,305.5v-17h42c1.1,0,2,0.9,2,2v13c0,1.1-0.9,2-2,2H354.2z"/>
					</g>
				</g>
			</g>
		</g>
	</g>
	<g>
		<g>
			<g>
				<g>
					<g>
						<defs>
							<rect id="SVGID_47_" x="353.7" y="-180.9" width="278" height="535.9"/>
						</defs>
						<clipPath id="SVGID_48_">
							<use xlink:href="#SVGID_47_"  style="overflow:visible;"/>
						</clipPath>
						<path class="st26" d="M354.7,305.6v-17h42c1.1,0,2,0.9,2,2v13c0,1.1-0.9,2-2,2H354.7z"/>
					</g>
				</g>
			</g>
		</g>
	</g>
	<g>
		<g>
			<g>
				<g>
					<g>
						<defs>
							<rect id="SVGID_49_" x="76.7" y="72.1" width="278" height="535.9"/>
						</defs>
						<clipPath id="SVGID_50_">
							<use xlink:href="#SVGID_49_"  style="overflow:visible;"/>
						</clipPath>
						<path class="st27" d="M325.3,155.5c-1.1,0-2-0.9-2-2v-13c0-1.1,0.9-2,2-2h29v17H325.3z"/>
					</g>
				</g>
			</g>
		</g>
	</g>
	<g>
		<g>
			<g>
				<g>
					<g>
						<defs>
							<rect id="SVGID_51_" x="76.7" y="72.1" width="278" height="535.9"/>
						</defs>
						<clipPath id="SVGID_52_">
							<use xlink:href="#SVGID_51_"  style="overflow:visible;"/>
						</clipPath>
						<path class="st28" d="M325.3,155.5c-1.1,0-2-0.9-2-2v-13c0-1.1,0.9-2,2-2h29v17H325.3z"/>
					</g>
				</g>
			</g>
		</g>
	</g>
	<g>
		<g>
			<g>
				<g>
					<g>
						<defs>
							<rect id="SVGID_53_" x="76.7" y="72.1" width="278" height="535.9"/>
						</defs>
						<clipPath id="SVGID_54_">
							<use xlink:href="#SVGID_53_"  style="overflow:visible;"/>
						</clipPath>
						<path class="st29" d="M227.3,239.5c-1.1,0-2-0.9-2-2v-13c0-1.1,0.9-2,2-2h127v17H227.3z"/>
					</g>
				</g>
			</g>
		</g>
	</g>
	<g>
		<g>
			<g>
				<g>
					<g>
						<defs>
							<rect id="SVGID_55_" x="76.7" y="72.1" width="278" height="535.9"/>
						</defs>
						<clipPath id="SVGID_56_">
							<use xlink:href="#SVGID_55_"  style="overflow:visible;"/>
						</clipPath>
						<path class="st30" d="M227.3,239.5c-1.1,0-2-0.9-2-2v-13c0-1.1,0.9-2,2-2h127v17H227.3z"/>
					</g>
				</g>
			</g>
		</g>
	</g>
	<g>
		<g>
			<g>
				<g>
					<g>
						<defs>
							<rect id="SVGID_57_" x="76.7" y="72.1" width="278" height="535.9"/>
						</defs>
						<clipPath id="SVGID_58_">
							<use xlink:href="#SVGID_57_"  style="overflow:visible;"/>
						</clipPath>
						<path class="st31" d="M220.3,323.5c-1.1,0-2-0.9-2-2v-13c0-1.1,0.9-2,2-2h134v17H220.3z"/>
					</g>
				</g>
			</g>
		</g>
	</g>
	<g>
		<g>
			<g>
				<g>
					<g>
						<defs>
							<rect id="SVGID_59_" x="76.7" y="72.1" width="278" height="535.9"/>
						</defs>
						<clipPath id="SVGID_60_">
							<use xlink:href="#SVGID_59_"  style="overflow:visible;"/>
						</clipPath>
						<path class="st32" d="M220.3,323.5c-1.1,0-2-0.9-2-2v-13c0-1.1,0.9-2,2-2h134v17H220.3z"/>
					</g>
				</g>
			</g>
		</g>
	</g>
	<g>
		<g>
			<g>
				<g>
					<g>
						<defs>
							<rect id="SVGID_61_" x="353.7" y="-180.9" width="278" height="535.9"/>
						</defs>
						<clipPath id="SVGID_62_">
							<use xlink:href="#SVGID_61_"  style="overflow:visible;"/>
						</clipPath>
						<path class="st33" d="M354.2,155.5v-17h1.5c0.8,0,1.5,0.7,1.5,1.5v14c0,0.8-0.7,1.5-1.5,1.5H354.2z"/>
					</g>
				</g>
			</g>
		</g>
	</g>
	<g>
		<g>
			<g>
				<g>
					<g>
						<defs>
							<rect id="SVGID_63_" x="353.7" y="-180.9" width="278" height="535.9"/>
						</defs>
						<clipPath id="SVGID_64_">
							<use xlink:href="#SVGID_63_"  style="overflow:visible;"/>
						</clipPath>
						<path class="st34" d="M354.7,155.5v-17h1.5c0.8,0,1.5,0.7,1.5,1.5v14c0,0.8-0.7,1.5-1.5,1.5H354.7z"/>
					</g>
				</g>
			</g>
		</g>
	</g>
	<g>
		<g>
			<g>
				<g>
					<g>
						<defs>
							<rect id="SVGID_65_" x="353.7" y="-180.9" width="278" height="535.9"/>
						</defs>
						<clipPath id="SVGID_66_">
							<use xlink:href="#SVGID_65_"  style="overflow:visible;"/>
						</clipPath>
						<path class="st35" d="M354.2,239.5v-17h9c1.1,0,2,0.9,2,2v13c0,1.1-0.9,2-2,2H354.2z"/>
					</g>
				</g>
			</g>
		</g>
	</g>
	<g>
		<g>
			<g>
				<g>
					<g>
						<defs>
							<rect id="SVGID_67_" x="353.7" y="-180.9" width="278" height="535.9"/>
						</defs>
						<clipPath id="SVGID_68_">
							<use xlink:href="#SVGID_67_"  style="overflow:visible;"/>
						</clipPath>
						<path class="st36" d="M354.7,239.6v-17h9c1.1,0,2,0.9,2,2v13c0,1.1-0.9,2-2,2H354.7z"/>
					</g>
				</g>
			</g>
		</g>
	</g>
	<g>
		<g>
			<g>
				<g>
					<g>
						<defs>
							<rect id="SVGID_69_" x="353.7" y="-180.9" width="278" height="535.9"/>
						</defs>
						<clipPath id="SVGID_70_">
							<use xlink:href="#SVGID_69_"  style="overflow:visible;"/>
						</clipPath>
						<path class="st37" d="M354.2,323.5v-17h15c1.1,0,2,0.9,2,2v13c0,1.1-0.9,2-2,2H354.2z"/>
					</g>
				</g>
			</g>
		</g>
	</g>
	<g>
		<g>
			<g>
				<g>
					<g>
						<defs>
							<rect id="SVGID_71_" x="353.7" y="-180.9" width="278" height="535.9"/>
						</defs>
						<clipPath id="SVGID_72_">
							<use xlink:href="#SVGID_71_"  style="overflow:visible;"/>
						</clipPath>
						<path class="st38" d="M354.7,323.5v-17h15c1.1,0,2,0.9,2,2v13c0,1.1-0.9,2-2,2H354.7z"/>
					</g>
				</g>
			</g>
		</g>
	</g>
	<path class="st39" d="M155.8,38.6c0-0.6,0.4-1,1-1h10c0.6,0,1,0.4,1,1v10c0,0.6-0.4,1-1,1h-10c-0.6,0-1-0.4-1-1V38.6z"/>
	<path class="st40" d="M178.6,45.5l0.2,1.1l0.2-1l1.7-6h1l1.6,6l0.2,1l0.2-1.2l1.3-5.8h1.1l-2.1,8.5h-1l-1.8-6.2l-0.1-0.7l-0.1,0.7
		l-1.8,6.2h-1l-2.1-8.5h1.1L178.6,45.5z M188.7,42.6c0.5-0.6,1.1-0.9,1.9-0.9c1.3,0,2,0.8,2,2.3v4.2h-1.1V44c0-0.4-0.1-0.8-0.3-1
		s-0.5-0.3-1-0.3c-0.4,0-0.7,0.1-0.9,0.3c-0.3,0.2-0.5,0.4-0.6,0.7v4.5h-1.1v-9h1.1L188.7,42.6L188.7,42.6z M195.8,48.1h-1.1v-6.3
		h1.1V48.1z M194.6,40.1c0-0.2,0.1-0.3,0.2-0.5c0.1-0.1,0.3-0.2,0.5-0.2s0.4,0.1,0.5,0.2s0.2,0.3,0.2,0.5s-0.1,0.3-0.2,0.4
		c-0.1,0.1-0.3,0.2-0.5,0.2s-0.4-0.1-0.5-0.2S194.6,40.3,194.6,40.1z M199.1,40.3v1.5h1.2v0.8h-1.2v4c0,0.3,0.1,0.5,0.2,0.6
		c0.1,0.1,0.3,0.2,0.5,0.2c0.1,0,0.3,0,0.5-0.1v0.9c-0.3,0.1-0.6,0.1-0.8,0.1c-0.5,0-0.8-0.1-1.1-0.4c-0.2-0.3-0.4-0.7-0.4-1.3v-4
		h-1.2v-0.8h1.2v-1.5H199.1z M204.3,48.3c-0.9,0-1.6-0.3-2.1-0.8c-0.5-0.6-0.8-1.3-0.8-2.3V45c0-0.6,0.1-1.2,0.4-1.7
		c0.2-0.5,0.6-0.9,1-1.2s0.9-0.4,1.4-0.4c0.8,0,1.5,0.3,1.9,0.8c0.5,0.5,0.7,1.3,0.7,2.3v0.5h-4.3c0,0.6,0.2,1.1,0.5,1.5
		c0.4,0.4,0.8,0.6,1.3,0.6c0.4,0,0.7-0.1,1-0.2c0.3-0.2,0.5-0.4,0.7-0.6l0.7,0.5C206.1,47.9,205.3,48.3,204.3,48.3z M204.1,42.6
		c-0.4,0-0.8,0.2-1.1,0.5s-0.5,0.8-0.5,1.3h3.2v-0.1c0-0.6-0.2-1-0.5-1.3S204.6,42.6,204.1,42.6z M212.2,39.6l2.8,7l2.8-7h1.5v8.5
		h-1.1v-3.3l0.1-3.6l-2.8,6.9h-0.9l-2.8-6.9l0.1,3.6v3.3h-1.1v-8.5H212.2z M224.5,48.1c-0.1-0.1-0.1-0.3-0.2-0.7
		c-0.5,0.5-1.1,0.8-1.8,0.8c-0.6,0-1.1-0.2-1.5-0.5c-0.4-0.4-0.6-0.8-0.6-1.4c0-0.7,0.2-1.2,0.8-1.5c0.5-0.4,1.2-0.5,2.1-0.5h1v-0.5
		c0-0.4-0.1-0.7-0.3-0.9s-0.6-0.3-1-0.3s-0.7,0.1-1,0.3s-0.4,0.4-0.4,0.7h-1.1c0-0.3,0.1-0.6,0.3-0.9s0.5-0.5,0.9-0.7
		s0.8-0.3,1.3-0.3c0.7,0,1.3,0.2,1.7,0.5c0.4,0.4,0.6,0.9,0.7,1.5v2.9c0,0.6,0.1,1,0.2,1.4v0.1C225.6,48.1,224.5,48.1,224.5,48.1z
		 M222.7,47.3c0.3,0,0.7-0.1,1-0.3s0.5-0.4,0.7-0.7V45h-0.8c-1.3,0-2,0.4-2,1.2c0,0.3,0.1,0.6,0.3,0.8
		C222.1,47.2,222.4,47.3,222.7,47.3z M228.8,48.1h-1.1v-9h1.1V48.1z M233.3,48.3c-0.9,0-1.6-0.3-2.1-0.8c-0.5-0.6-0.8-1.3-0.8-2.3
		V45c0-0.6,0.1-1.2,0.4-1.7c0.2-0.5,0.6-0.9,1-1.2s0.9-0.4,1.4-0.4c0.8,0,1.5,0.3,1.9,0.8c0.5,0.5,0.7,1.3,0.7,2.3v0.5h-4.3
		c0,0.6,0.2,1.1,0.5,1.5c0.4,0.4,0.8,0.6,1.3,0.6c0.4,0,0.7-0.1,1-0.2c0.3-0.2,0.5-0.4,0.7-0.6l0.7,0.5
		C235.1,47.9,234.3,48.3,233.3,48.3z M233.1,42.6c-0.4,0-0.8,0.2-1.1,0.5s-0.5,0.8-0.5,1.3h3.2v-0.1c0-0.6-0.2-1-0.5-1.3
		S233.6,42.6,233.1,42.6z"/>
	<path class="st41" d="M251.8,38.6c0-0.6,0.4-1,1-1h10c0.6,0,1,0.4,1,1v10c0,0.6-0.4,1-1,1h-10c-0.6,0-1-0.4-1-1L251.8,38.6
		L251.8,38.6z"/>
	<path class="st40" d="M272.8,48.1v-8.5h2.8c0.9,0,1.6,0.2,2.1,0.6s0.7,0.9,0.7,1.7c0,0.4-0.1,0.8-0.3,1.1c-0.2,0.3-0.5,0.5-0.9,0.7
		c0.5,0.1,0.8,0.4,1.1,0.7c0.3,0.4,0.4,0.8,0.4,1.3c0,0.8-0.2,1.4-0.8,1.8c-0.5,0.4-1.2,0.7-2.1,0.7L272.8,48.1L272.8,48.1
		L272.8,48.1z M273.9,44.2v3.1h1.9c0.5,0,0.9-0.1,1.2-0.4c0.3-0.3,0.5-0.6,0.5-1.1c0-1-0.6-1.5-1.7-1.5L273.9,44.2L273.9,44.2z
		 M273.9,43.3h1.7c0.5,0,0.9-0.1,1.2-0.4c0.3-0.3,0.5-0.6,0.5-1c0-0.5-0.1-0.8-0.4-1s-0.7-0.3-1.2-0.3H274v2.7H273.9z M280.8,48.1
		h-1.1v-9h1.1V48.1z M286.5,48.1c-0.1-0.1-0.1-0.3-0.2-0.7c-0.5,0.5-1.1,0.8-1.8,0.8c-0.6,0-1.1-0.2-1.5-0.5
		c-0.4-0.4-0.6-0.8-0.6-1.4c0-0.7,0.2-1.2,0.8-1.5c0.5-0.4,1.2-0.5,2.1-0.5h1v-0.5c0-0.4-0.1-0.7-0.3-0.9c-0.2-0.2-0.6-0.3-1-0.3
		s-0.7,0.1-1,0.3s-0.4,0.4-0.4,0.7h-1.1c0-0.3,0.1-0.6,0.3-0.9c0.2-0.3,0.5-0.5,0.9-0.7s0.8-0.3,1.3-0.3c0.7,0,1.3,0.2,1.7,0.5
		c0.4,0.4,0.6,0.9,0.7,1.5v2.9c0,0.6,0.1,1,0.2,1.4v0.1C287.6,48.1,286.5,48.1,286.5,48.1z M284.7,47.3c0.3,0,0.7-0.1,1-0.3
		s0.5-0.4,0.7-0.7V45h-0.8c-1.3,0-2,0.4-2,1.2c0,0.3,0.1,0.6,0.3,0.8S284.4,47.3,284.7,47.3z M292.2,47.4c0.4,0,0.7-0.1,1-0.3
		s0.5-0.5,0.5-0.9h1c0,0.4-0.2,0.7-0.4,1c-0.2,0.3-0.5,0.6-0.9,0.8s-0.8,0.3-1.2,0.3c-0.9,0-1.6-0.3-2.1-0.9s-0.8-1.4-0.8-2.4v-0.2
		c0-0.6,0.1-1.2,0.3-1.6c0.2-0.5,0.6-0.8,1-1.1s0.9-0.4,1.5-0.4c0.7,0,1.3,0.2,1.8,0.6s0.7,1,0.8,1.7h-1c0-0.4-0.2-0.8-0.5-1
		c-0.3-0.3-0.6-0.4-1-0.4c-0.6,0-1,0.2-1.3,0.6s-0.5,1-0.5,1.7v0.2c0,0.7,0.2,1.3,0.5,1.7C291.2,47.2,291.6,47.4,292.2,47.4z
		 M297.4,45.2l-0.7,0.7v2.2h-1.1v-9h1.1v5.5l0.6-0.7l2-2.1h1.3l-2.5,2.7l2.8,3.7h-1.3L297.4,45.2z M306.2,39.6l2.8,7l2.8-7h1.5v8.5
		h-1.1v-3.3l0.1-3.6l-2.8,6.9h-0.9l-2.8-6.9l0.1,3.6v3.3h-1.1v-8.5H306.2z M318.5,48.1c-0.1-0.1-0.1-0.3-0.2-0.7
		c-0.5,0.5-1.1,0.8-1.8,0.8c-0.6,0-1.1-0.2-1.5-0.5c-0.4-0.4-0.6-0.8-0.6-1.4c0-0.7,0.2-1.2,0.8-1.5c0.5-0.4,1.2-0.5,2.1-0.5h1v-0.5
		c0-0.4-0.1-0.7-0.3-0.9c-0.2-0.2-0.6-0.3-1-0.3s-0.7,0.1-1,0.3s-0.4,0.4-0.4,0.7h-1.1c0-0.3,0.1-0.6,0.3-0.9
		c0.2-0.3,0.5-0.5,0.9-0.7s0.8-0.3,1.3-0.3c0.7,0,1.3,0.2,1.7,0.5c0.4,0.4,0.6,0.9,0.7,1.5v2.9c0,0.6,0.1,1,0.2,1.4v0.1
		C319.6,48.1,318.5,48.1,318.5,48.1z M316.7,47.3c0.3,0,0.7-0.1,1-0.3s0.5-0.4,0.7-0.7V45h-0.8c-1.3,0-2,0.4-2,1.2
		c0,0.3,0.1,0.6,0.3,0.8S316.4,47.3,316.7,47.3z M322.8,48.1h-1.1v-9h1.1V48.1z M327.3,48.3c-0.9,0-1.6-0.3-2.1-0.8
		c-0.5-0.6-0.8-1.3-0.8-2.3V45c0-0.6,0.1-1.2,0.4-1.7c0.2-0.5,0.6-0.9,1-1.2s0.9-0.4,1.4-0.4c0.8,0,1.5,0.3,1.9,0.8
		c0.5,0.5,0.7,1.3,0.7,2.3v0.5h-4.3c0,0.6,0.2,1.1,0.5,1.5c0.4,0.4,0.8,0.6,1.3,0.6c0.4,0,0.7-0.1,1-0.2c0.3-0.2,0.5-0.4,0.7-0.6
		l0.7,0.5C329.1,47.9,328.3,48.3,327.3,48.3z M327.1,42.6c-0.4,0-0.8,0.2-1.1,0.5c-0.3,0.3-0.5,0.8-0.5,1.3h3.2v-0.1
		c0-0.6-0.2-1-0.5-1.3S327.6,42.6,327.1,42.6z"/>
	<path class="st42" d="M345.8,38.6c0-0.6,0.4-1,1-1h10c0.6,0,1,0.4,1,1v10c0,0.6-0.4,1-1,1h-10c-0.6,0-1-0.4-1-1V38.6z"/>
	<path class="st40" d="M373.3,48.1h-1.1v-3.9h-4.3v3.9h-1.1v-8.5h1.1v3.7h4.3v-3.7h1.1V48.1z M376.8,48.1h-1.1v-6.3h1.1V48.1z
		 M375.6,40.1c0-0.2,0.1-0.3,0.2-0.5c0.1-0.1,0.3-0.2,0.5-0.2s0.4,0.1,0.5,0.2s0.2,0.3,0.2,0.5s-0.1,0.3-0.2,0.4s-0.3,0.2-0.5,0.2
		s-0.4-0.1-0.5-0.2S375.6,40.3,375.6,40.1z M382.3,46.5c0-0.3-0.1-0.5-0.3-0.7c-0.2-0.2-0.6-0.3-1.2-0.4c-0.5-0.1-1-0.3-1.3-0.4
		c-0.3-0.2-0.6-0.4-0.7-0.6s-0.2-0.5-0.2-0.8c0-0.5,0.2-1,0.7-1.3c0.4-0.4,1-0.5,1.7-0.5s1.3,0.2,1.7,0.6c0.4,0.4,0.7,0.8,0.7,1.4
		h-1.1c0-0.3-0.1-0.5-0.4-0.8c-0.2-0.2-0.6-0.3-0.9-0.3c-0.4,0-0.7,0.1-0.9,0.3c-0.2,0.2-0.3,0.4-0.3,0.7s0.1,0.5,0.3,0.6
		c0.2,0.1,0.6,0.3,1.1,0.4s1,0.3,1.3,0.4c0.3,0.2,0.6,0.4,0.7,0.6c0.2,0.2,0.2,0.5,0.2,0.9c0,0.6-0.2,1-0.7,1.4
		c-0.4,0.3-1,0.5-1.8,0.5c-0.5,0-1-0.1-1.4-0.3s-0.7-0.4-0.9-0.8c-0.2-0.3-0.3-0.7-0.3-1h1.1c0,0.4,0.2,0.7,0.4,0.9
		c0.3,0.2,0.6,0.3,1.1,0.3c0.4,0,0.7-0.1,1-0.2C382.2,47,382.3,46.7,382.3,46.5z M390,45.1c0,1-0.2,1.7-0.7,2.3
		c-0.4,0.6-1,0.9-1.8,0.9s-1.4-0.2-1.8-0.7v3h-1.1v-8.8h1v0.7c0.4-0.5,1.1-0.8,1.8-0.8c0.8,0,1.4,0.3,1.8,0.9s0.7,1.4,0.7,2.4v0.1
		C389.9,45.1,390,45.1,390,45.1z M388.9,44.9c0-0.7-0.2-1.3-0.5-1.7s-0.7-0.6-1.2-0.6c-0.7,0-1.1,0.3-1.5,0.9v3
		c0.3,0.6,0.8,0.9,1.5,0.9c0.5,0,0.9-0.2,1.2-0.6C388.7,46.4,388.9,45.7,388.9,44.9z M395.5,48.1c-0.1-0.1-0.1-0.3-0.2-0.7
		c-0.5,0.5-1.1,0.8-1.8,0.8c-0.6,0-1.1-0.2-1.5-0.5c-0.4-0.4-0.6-0.8-0.6-1.4c0-0.7,0.2-1.2,0.8-1.5c0.5-0.4,1.2-0.5,2.1-0.5h1v-0.5
		c0-0.4-0.1-0.7-0.3-0.9c-0.2-0.2-0.6-0.3-1-0.3s-0.7,0.1-1,0.3s-0.4,0.4-0.4,0.7h-1.1c0-0.3,0.1-0.6,0.3-0.9
		c0.2-0.3,0.5-0.5,0.9-0.7s0.8-0.3,1.3-0.3c0.7,0,1.3,0.2,1.7,0.5c0.4,0.4,0.6,0.9,0.7,1.5v2.9c0,0.6,0.1,1,0.2,1.4v0.1
		C396.6,48.1,395.5,48.1,395.5,48.1z M393.7,47.3c0.3,0,0.7-0.1,1-0.3s0.5-0.4,0.7-0.7V45h-0.8c-1.3,0-2,0.4-2,1.2
		c0,0.3,0.1,0.6,0.3,0.8S393.4,47.3,393.7,47.3z M399.6,41.8v0.8c0.5-0.6,1.1-0.9,1.9-0.9c1.3,0,2,0.8,2,2.3v4.2h-1.1V44
		c0-0.4-0.1-0.8-0.3-1c-0.2-0.2-0.5-0.3-1-0.3c-0.4,0-0.7,0.1-0.9,0.3c-0.3,0.2-0.5,0.4-0.6,0.7v4.5h-1.1v-6.3L399.6,41.8
		L399.6,41.8z M406.8,48.1h-1.1v-6.3h1.1V48.1z M405.6,40.1c0-0.2,0.1-0.3,0.2-0.5c0.1-0.1,0.3-0.2,0.5-0.2s0.4,0.1,0.5,0.2
		s0.2,0.3,0.2,0.5s-0.1,0.3-0.2,0.4s-0.3,0.2-0.5,0.2s-0.4-0.1-0.5-0.2S405.6,40.3,405.6,40.1z M411.2,47.4c0.4,0,0.7-0.1,1-0.3
		s0.5-0.5,0.5-0.9h1c0,0.4-0.2,0.7-0.4,1c-0.2,0.3-0.5,0.6-0.9,0.8s-0.8,0.3-1.2,0.3c-0.9,0-1.6-0.3-2.1-0.9s-0.8-1.4-0.8-2.4v-0.2
		c0-0.6,0.1-1.2,0.3-1.6c0.2-0.5,0.6-0.8,1-1.1s0.9-0.4,1.5-0.4c0.7,0,1.3,0.2,1.8,0.6s0.7,1,0.8,1.7h-1c0-0.4-0.2-0.8-0.5-1
		c-0.3-0.3-0.6-0.4-1-0.4c-0.6,0-1,0.2-1.3,0.6s-0.5,1-0.5,1.7v0.2c0,0.7,0.2,1.3,0.5,1.7C410.2,47.2,410.6,47.4,411.2,47.4z
		 M419.2,39.6l2.8,7l2.8-7h1.5v8.5h-1.1v-3.3l0.1-3.6l-2.8,6.9h-0.9l-2.8-6.9l0.1,3.6v3.3h-1.1v-8.5H419.2z M431.5,48.1
		c-0.1-0.1-0.1-0.3-0.2-0.7c-0.5,0.5-1.1,0.8-1.8,0.8c-0.6,0-1.1-0.2-1.5-0.5c-0.4-0.4-0.6-0.8-0.6-1.4c0-0.7,0.2-1.2,0.8-1.5
		c0.5-0.4,1.2-0.5,2.1-0.5h1v-0.5c0-0.4-0.1-0.7-0.3-0.9c-0.2-0.2-0.6-0.3-1-0.3s-0.7,0.1-1,0.3s-0.4,0.4-0.4,0.7h-1.1
		c0-0.3,0.1-0.6,0.3-0.9c0.2-0.3,0.5-0.5,0.9-0.7s0.8-0.3,1.3-0.3c0.7,0,1.3,0.2,1.7,0.5c0.4,0.4,0.6,0.9,0.7,1.5v2.9
		c0,0.6,0.1,1,0.2,1.4v0.1C432.6,48.1,431.5,48.1,431.5,48.1z M429.7,47.3c0.3,0,0.7-0.1,1-0.3s0.5-0.4,0.7-0.7V45h-0.8
		c-1.3,0-2,0.4-2,1.2c0,0.3,0.1,0.6,0.3,0.8S429.4,47.3,429.7,47.3z M435.8,48.1h-1.1v-9h1.1V48.1z M440.3,48.3
		c-0.9,0-1.6-0.3-2.1-0.8c-0.5-0.6-0.8-1.3-0.8-2.3V45c0-0.6,0.1-1.2,0.4-1.7c0.2-0.5,0.6-0.9,1-1.2s0.9-0.4,1.4-0.4
		c0.8,0,1.5,0.3,1.9,0.8c0.5,0.5,0.7,1.3,0.7,2.3v0.5h-4.3c0,0.6,0.2,1.1,0.5,1.5c0.4,0.4,0.8,0.6,1.3,0.6c0.4,0,0.7-0.1,1-0.2
		c0.3-0.2,0.5-0.4,0.7-0.6l0.7,0.5C442.1,47.9,441.3,48.3,440.3,48.3z M440.1,42.6c-0.4,0-0.8,0.2-1.1,0.5c-0.3,0.3-0.5,0.8-0.5,1.3
		h3.2v-0.1c0-0.6-0.2-1-0.5-1.3S440.6,42.6,440.1,42.6z"/>
	<path class="st40" d="M351.4,336.5c0-1.2,0.2-2.1,0.7-2.7c0.4-0.6,1.1-0.9,2-0.9s1.6,0.3,2,0.9s0.6,1.5,0.6,2.8v1.4
		c0,1.2-0.2,2.1-0.7,2.7s-1.1,0.9-2,0.9s-1.6-0.3-2-0.9s-0.7-1.6-0.7-2.8v-1.4H351.4z M352.5,338.2c0,0.9,0.1,1.5,0.4,2
		s0.7,0.6,1.2,0.6s0.9-0.2,1.2-0.7c0.3-0.4,0.4-1.1,0.4-2v-1.7c0-0.9-0.1-1.5-0.4-1.9s-0.7-0.6-1.2-0.6c-0.6,0-1,0.2-1.2,0.6
		c-0.3,0.4-0.4,1.1-0.4,2V338.2z"/>
	<path class="st40" d="M470.7,342.3h-1.1v-7.2l-2.2,0.8v-1l3.1-1.2h0.2V342.3z M474.6,338l0.4-4.2h4.4v1h-3.5l-0.3,2.3
		c0.4-0.2,0.9-0.4,1.4-0.4c0.8,0,1.4,0.3,1.8,0.8c0.5,0.5,0.7,1.2,0.7,2.1s-0.2,1.6-0.7,2.1s-1.1,0.8-2,0.8c-0.8,0-1.4-0.2-1.8-0.6
		c-0.5-0.4-0.8-1-0.8-1.8h1c0.1,0.5,0.2,0.9,0.5,1.1s0.7,0.4,1.1,0.4c0.5,0,0.9-0.2,1.2-0.5c0.3-0.3,0.4-0.8,0.4-1.4s-0.2-1-0.5-1.4
		s-0.7-0.5-1.2-0.5s-0.8,0.1-1.1,0.3l-0.3,0.2L474.6,338z"/>
	<path class="st40" d="M512.8,342.6h-5.6v-0.8l3-3.3c0.4-0.5,0.7-0.9,0.9-1.2c0.2-0.3,0.2-0.6,0.2-1s-0.1-0.8-0.4-1.1
		s-0.6-0.4-1.1-0.4s-0.9,0.2-1.2,0.5c-0.3,0.3-0.5,0.7-0.5,1.3H507c0-0.8,0.2-1.4,0.8-1.9c0.5-0.5,1.2-0.7,2-0.7s1.4,0.2,1.9,0.6
		c0.5,0.4,0.7,1,0.7,1.7c0,0.8-0.5,1.8-1.6,3l-2.3,2.5h4.3V342.6z M519.6,339c0,1.3-0.2,2.2-0.7,2.8c-0.4,0.6-1.1,0.9-2,0.9
		s-1.6-0.3-2-0.9s-0.7-1.5-0.7-2.7v-1.4c0-1.3,0.2-2.2,0.6-2.8s1.1-0.9,2-0.9s1.6,0.3,2,0.9s0.7,1.5,0.7,2.7v1.4H519.6z
		 M518.5,337.5c0-0.9-0.1-1.6-0.4-2c-0.2-0.4-0.7-0.6-1.2-0.6c-0.6,0-1,0.2-1.2,0.6s-0.4,1.1-0.4,1.9v1.7c0,0.9,0.1,1.6,0.4,2
		c0.3,0.4,0.7,0.7,1.2,0.7s0.9-0.2,1.2-0.6s0.4-1.1,0.4-2V337.5z"/>
	<path class="st40" d="M552.4,342.5h-5.6v-0.8l3-3.3c0.4-0.5,0.7-0.9,0.9-1.2c0.2-0.3,0.2-0.6,0.2-1s-0.1-0.8-0.4-1.1
		s-0.6-0.4-1.1-0.4s-0.9,0.2-1.2,0.5s-0.5,0.7-0.5,1.3h-1.1c0-0.8,0.2-1.4,0.8-1.9c0.5-0.5,1.2-0.7,2-0.7s1.4,0.2,1.9,0.6
		s0.7,1,0.7,1.7c0,0.8-0.5,1.8-1.6,3l-2.3,2.5h4.3L552.4,342.5L552.4,342.5z M554.3,338.3l0.4-4.2h4.4v1h-3.5l-0.3,2.3
		c0.4-0.2,0.9-0.4,1.4-0.4c0.8,0,1.4,0.3,1.8,0.8c0.5,0.5,0.7,1.2,0.7,2.1s-0.2,1.6-0.7,2.1s-1.1,0.8-2,0.8c-0.8,0-1.4-0.2-1.8-0.6
		c-0.5-0.4-0.8-1-0.8-1.8h1c0.1,0.5,0.2,0.9,0.5,1.1s0.7,0.4,1.1,0.4c0.5,0,0.9-0.2,1.2-0.5s0.4-0.8,0.4-1.4s-0.2-1-0.5-1.4
		s-0.7-0.5-1.2-0.5s-0.8,0.1-1.1,0.3l-0.3,0.2L554.3,338.3z"/>
	<path class="st40" d="M588.2,337.8h0.8c0.5,0,0.9-0.1,1.2-0.4s0.4-0.6,0.4-1.1c0-1-0.5-1.5-1.5-1.5c-0.5,0-0.8,0.1-1.1,0.4
		s-0.4,0.6-0.4,1.1h-1.1c0-0.7,0.2-1.2,0.7-1.7c0.5-0.4,1.1-0.7,1.9-0.7c0.8,0,1.4,0.2,1.9,0.6s0.7,1,0.7,1.8c0,0.4-0.1,0.7-0.4,1.1
		s-0.6,0.6-1,0.8c0.5,0.1,0.8,0.4,1.1,0.7c0.3,0.3,0.4,0.8,0.4,1.3c0,0.8-0.2,1.4-0.8,1.8c-0.5,0.4-1.2,0.7-2,0.7s-1.4-0.2-2-0.7
		c-0.5-0.4-0.8-1-0.8-1.7h1.1c0,0.4,0.1,0.8,0.4,1.1s0.7,0.4,1.2,0.4s0.9-0.1,1.2-0.4s0.4-0.7,0.4-1.2s-0.2-0.9-0.5-1.1
		c-0.3-0.3-0.7-0.4-1.3-0.4h-0.8v-0.9L588.2,337.8L588.2,337.8z M599,339c0,1.3-0.2,2.2-0.7,2.8c-0.4,0.6-1.1,0.9-2,0.9
		s-1.6-0.3-2-0.9s-0.7-1.5-0.7-2.7v-1.4c0-1.3,0.2-2.2,0.6-2.8s1.1-0.9,2-0.9s1.6,0.3,2,0.9s0.7,1.5,0.7,2.7v1.4H599z M597.9,337.5
		c0-0.9-0.1-1.6-0.4-2c-0.2-0.4-0.7-0.6-1.2-0.6c-0.6,0-1,0.2-1.2,0.6s-0.4,1.1-0.4,1.9v1.7c0,0.9,0.1,1.6,0.4,2s0.7,0.7,1.2,0.7
		s0.9-0.2,1.2-0.6s0.4-1.1,0.4-2V337.5z"/>
	<path class="st40" d="M627.8,337.7h0.8c0.5,0,0.9-0.1,1.2-0.4s0.4-0.6,0.4-1.1c0-1-0.5-1.5-1.5-1.5c-0.5,0-0.8,0.1-1.1,0.4
		s-0.4,0.6-0.4,1.1h-1.1c0-0.7,0.2-1.2,0.7-1.7c0.5-0.4,1.1-0.7,1.9-0.7c0.8,0,1.4,0.2,1.9,0.6s0.7,1,0.7,1.8c0,0.4-0.1,0.7-0.4,1.1
		c-0.2,0.3-0.6,0.6-1,0.8c0.5,0.1,0.8,0.4,1.1,0.7c0.3,0.3,0.4,0.8,0.4,1.3c0,0.8-0.2,1.4-0.8,1.8c-0.5,0.4-1.2,0.7-2,0.7
		s-1.4-0.2-2-0.7c-0.5-0.4-0.8-1-0.8-1.7h1.1c0,0.4,0.1,0.8,0.4,1.1s0.7,0.4,1.2,0.4s0.9-0.1,1.2-0.4s0.4-0.7,0.4-1.2
		s-0.2-0.9-0.5-1.1c-0.3-0.3-0.7-0.4-1.3-0.4h-0.8v-0.9L627.8,337.7L627.8,337.7z M633.8,338.3l0.4-4.2h4.4v1h-3.5l-0.3,2.3
		c0.4-0.2,0.9-0.4,1.4-0.4c0.8,0,1.4,0.3,1.8,0.8c0.5,0.5,0.7,1.2,0.7,2.1s-0.2,1.6-0.7,2.1s-1.1,0.8-2,0.8c-0.8,0-1.4-0.2-1.8-0.6
		c-0.5-0.4-0.8-1-0.8-1.8h1c0.1,0.5,0.2,0.9,0.5,1.1s0.7,0.4,1.1,0.4c0.5,0,0.9-0.2,1.2-0.5s0.4-0.8,0.4-1.4s-0.2-1-0.5-1.4
		s-0.7-0.5-1.2-0.5s-0.8,0.1-1.1,0.3l-0.3,0.2L633.8,338.3z"/>
	<text transform="matrix(1 0 0 1 37.3041 65.22)" class="st43 st44 st45">Likelihood of being imprisoned in the U.S., depending on when a person was born (%)</text>
</g>
<rect x="461" y="107" class="st46" width="13.8" height="13.8"/>
<rect x="461" y="127.3" class="st47" width="13.8" height="13.8"/>
<rect x="461" y="147.5" class="st48" width="13.8" height="13.8"/>
<text transform="matrix(1 0 0 1 477.7805 120.8125)" class="st43 st49 st50">White</text>
<text transform="matrix(1 0 0 1 477.7805 141.0714)" class="st43 st49 st50">Black</text>
<text transform="matrix(1 0 0 1 477.7805 161.3303)" class="st43 st49 st50">Hispanic</text>
<text transform="matrix(1 0 0 1 351.4413 342.4613)" class="st43 st44 st50">0</text>
<text transform="matrix(1 0 0 1 312.5379 342.6411)" class="st43 st44 st50">5</text>
<text transform="matrix(1 0 0 1 271.1404 342.5236)" class="st43 st44 st50">10</text>
<text transform="matrix(1 0 0 1 230.5363 342.4613)" class="st43 st44 st50">15</text>
<text transform="matrix(1 0 0 1 190.1767 342.4613)" class="st43 st44 st50">20</text>
<text transform="matrix(1 0 0 1 150.7999 342.4613)" class="st43 st44 st50">25</text>
<text transform="matrix(1 0 0 1 111.0835 342.524)" class="st43 st44 st50">30</text>
<text transform="matrix(1 0 0 1 71.1824 342.4613)" class="st43 st44 st50">35</text>
<text transform="matrix(1 0 0 1 391.9411 342.6414)" class="st43 st44 st50">5</text>
<text transform="matrix(1 0 0 1 430.4495 342.6416)" class="st43 st44 st50">10</text>
<text transform="matrix(1 0 0 1 297.4816 97.9419)" class="st43 st44 st51">Male</text>
<text transform="matrix(1 0 0 1 364.9613 97.9417)" class="st43 st44 st51">Female</text>
<text transform="matrix(1 0 0 1 47.729 132.0591)" class="st43 st49 st50">Born in</text>
<text transform="matrix(1 0 0 1 55.329 142.8591)" class="st43 st49 st50">1974</text>
<text transform="matrix(1 0 0 1 47.7289 210.0412)" class="st43 st49 st50">Born in</text>
<text transform="matrix(1 0 0 1 55.0289 220.8412)" class="st43 st49 st50">1991</text>
<text transform="matrix(1 0 0 1 47.7289 293.7482)" class="st43 st49 st50">Born in</text>
<text transform="matrix(1 0 0 1 54.0289 304.5482)" class="st43 st49 st50">2001</text>
<line class="st52" x1="354.5" y1="323.5" x2="354.5" y2="102.5"/>
<text transform="matrix(1 0 0 1 339.1276 117.1754)" class="st0 st49 st53">2.2</text>
<text transform="matrix(1 0 0 1 250.6302 135.2)" class="st0 st49 st53">13.4</text>
<text transform="matrix(1 0 0 1 324.8483 152.8694)" class="st0 st49 st53">4.0</text>
<text transform="matrix(1 0 0 1 321.0136 201.3212)" class="st0 st49 st53">4.4</text>
<text transform="matrix(1 0 0 1 123.4344 218.5279)" class="st0 st49 st53">29.4</text>
<text transform="matrix(1 0 0 1 227.5363 236.7781)" class="st0 st49 st53">16.3</text>
<text transform="matrix(1 0 0 1 309.8966 285.6458)" class="st0 st49 st53">5.9</text>
<text transform="matrix(1 0 0 1 101.5224 303.5482)" class="st0 st49 st53">32.2</text>
<text transform="matrix(1 0 0 1 220.4999 321.5451)" class="st0 st49 st53">17.2</text>
<text transform="matrix(1 0 0 1 358.5172 117.1755)" class="st43 st49 st53">0.2</text>
<text transform="matrix(1 0 0 1 365.961 135.1998)" class="st43 st49 st53">1.1</text>
<text transform="matrix(1 0 0 1 360.288 152.8694)" class="st43 st49 st53">0.4</text>
<text transform="matrix(1 0 0 1 362.2593 201.3212)" class="st43 st49 st53">0.5</text>
<text transform="matrix(1 0 0 1 386.407 218.5279)" class="st43 st49 st53">3.6</text>
<text transform="matrix(1 0 0 1 368.4306 236.7781)" class="st43 st49 st53">1.5</text>
<text transform="matrix(1 0 0 1 364.9613 285.6458)" class="st43 st49 st53">0.9</text>
<text transform="matrix(1 0 0 1 401.9384 303.5482)" class="st43 st49 st53">5.6</text>
<text transform="matrix(1 0 0 1 375.0087 321.5451)" class="st43 st49 st53">2.2</text>
</svg>
