<?xml version="1.0" encoding="utf-8"?>
<!-- Generator: Adobe Illustrator 23.0.3, SVG Export Plug-In . SVG Version: 6.00 Build 0)  -->
<svg version="1.1" id="Layer_1" xmlns="http://www.w3.org/2000/svg" xmlns:xlink="http://www.w3.org/1999/xlink" x="0px" y="0px"
	 viewBox="0 0 859.77 609.16" style="enable-background:new 0 0 859.77 609.16;" xml:space="preserve">
<style type="text/css">
	.st0{fill:none;stroke:#37636B;stroke-miterlimit:10;}
	.st1{fill:#757575;}
	.st2{font-family:'Oswald-Regular';}
	.st3{font-size:25px;}
	.st4{fill:#E8D1C1;}
	.st5{fill:#91968D;}
	.st6{font-size:20px;}
	.st7{enable-background:new    ;}
	.st8{font-size:21px;}
	.st9{font-family:'Oswald-Medium';}
	.st10{font-size:40px;}
	.st11{fill:#919191;}
	.st12{font-family:'Oswald-Light';}
	.st13{font-size:18px;}
</style>
<g>
	<g>
		<line class="st0" x1="68.83" y1="451.43" x2="578.67" y2="451.43"/>
		<g>
			<g>
				<line class="st0" x1="68.83" y1="451.43" x2="68.83" y2="444.58"/>
				<line class="st0" x1="196.29" y1="451.43" x2="196.29" y2="444.58"/>
				<line class="st0" x1="323.75" y1="451.43" x2="323.75" y2="444.58"/>
				<line class="st0" x1="451.21" y1="451.43" x2="451.21" y2="444.58"/>
				<line class="st0" x1="578.67" y1="451.43" x2="578.67" y2="444.58"/>
			</g>
		</g>
	</g>
	<g>
		<g>
			<text transform="matrix(1 0 0 1 47.9431 460.3963)" class="st1 st2 st3">0</text>
			<text transform="matrix(1 0 0 1 38.0431 405.6014)" class="st1 st2 st3">10</text>
			<text transform="matrix(1 0 0 1 35.9929 350.8065)" class="st1 st2 st3">20</text>
			<text transform="matrix(1 0 0 1 36.0182 296.0115)" class="st1 st2 st3">30</text>
			<text transform="matrix(1 0 0 1 35.8683 241.2166)" class="st1 st2 st3">40</text>
			<text transform="matrix(1 0 0 1 36.0431 186.4217)" class="st1 st2 st3">50</text>
		</g>
		<line class="st0" x1="68.83" y1="451.43" x2="68.83" y2="177.46"/>
		<g>
			<g>
				<line class="st0" x1="68.83" y1="451.43" x2="81.58" y2="451.43"/>
				<line class="st0" x1="68.83" y1="396.64" x2="81.58" y2="396.64"/>
				<line class="st0" x1="68.83" y1="341.84" x2="81.58" y2="341.84"/>
				<line class="st0" x1="68.83" y1="287.05" x2="81.58" y2="287.05"/>
				<line class="st0" x1="68.83" y1="232.25" x2="81.58" y2="232.25"/>
				<line class="st0" x1="68.83" y1="177.46" x2="81.58" y2="177.46"/>
			</g>
		</g>
	</g>
	<g>
		<g>
			<rect x="630.86" y="177.46" class="st4" width="28.68" height="27.4"/>
			<g>
				<rect x="86.67" y="327.05" class="st4" width="91.77" height="100.82"/>
				<rect x="214.13" y="300.75" class="st4" width="91.77" height="127.12"/>
				<rect x="341.6" y="216.36" class="st4" width="91.77" height="192.88"/>
				<rect x="469.06" y="177.46" class="st4" width="91.77" height="238.91"/>
			</g>
		</g>
		<g>
			<rect x="630.86" y="218.56" class="st5" width="28.68" height="27.4"/>
			<g>
				<rect x="86.67" y="427.87" class="st5" width="91.77" height="23.56"/>
				<rect x="214.13" y="427.87" class="st5" width="91.77" height="23.56"/>
				<rect x="341.6" y="409.24" class="st5" width="91.77" height="42.19"/>
				<rect x="469.06" y="416.37" class="st5" width="91.77" height="35.07"/>
			</g>
		</g>
	</g>
	<g>
		<text transform="matrix(1 0 0 1 672.0397 199.1204)" class="st1 st2 st6">Formerly Incarcer</text>
		<text transform="matrix(1 0 0 1 800.1798 199.1204)" class="st1 st2 st6">a</text>
		<text transform="matrix(1 0 0 1 808.5398 199.1204)" class="st1 st2 st6">ted</text>
		<text transform="matrix(1 0 0 1 672.0397 240.2166)" class="st1 st2 st6">General popul</text>
		<text transform="matrix(1 0 0 1 772.1798 240.2166)" class="st1 st2 st6">a</text>
		<text transform="matrix(1 0 0 1 780.5398 240.2166)" class="st1 st2 st6">tion</text>
	</g>
	<g>
		<text transform="matrix(1 0 0 1 491.3465 477.5697)" class="st7"><tspan x="0" y="0" class="st1 st2 st8">Black </tspan><tspan x="-4.68" y="25.2" class="st1 st2 st8">Women</tspan></text>
		<text transform="matrix(1 0 0 1 363.886 477.5697)" class="st7"><tspan x="0" y="0" class="st1 st2 st8">Black </tspan><tspan x="7.64" y="25.2" class="st1 st2 st8">Men</tspan></text>
		<text transform="matrix(1 0 0 1 229.4963 477.5697)" class="st7"><tspan x="0" y="0" class="st1 st2 st8">White </tspan><tspan x="-3.5" y="25.2" class="st1 st2 st8">Women</tspan></text>
		<text transform="matrix(1 0 0 1 104.8146 475.6385)" class="st7"><tspan x="0" y="0" class="st1 st2 st8">White </tspan><tspan x="8.83" y="25.2" class="st1 st2 st8">Men</tspan></text>
	</g>
</g>
<text transform="matrix(1 0 0 1 44.2145 68.7537)" class="st1 st9 st10">Unemployment Rates for Age 35-44 in the U.S. (%)</text>
<text transform="matrix(1 0 0 1 65.1068 583.3286)" class="st11 st12 st6">Source: Prison Policy Initiative</text>
<g>
	<text transform="matrix(1 0 0 1 65.1068 549.8397)" class="st11 st12 st13">Population in 2008, former inmates within 4 years of release (2005-2008)</text>
</g>
</svg>
