<?xml version="1.0" encoding="utf-8"?>
<!-- Generator: Adobe Illustrator 23.0.3, SVG Export Plug-In . SVG Version: 6.00 Build 0)  -->
<svg version="1.1" id="Layer_1" xmlns="http://www.w3.org/2000/svg" xmlns:xlink="http://www.w3.org/1999/xlink" x="0px" y="0px"
	 viewBox="0 0 1026 688" style="enable-background:new 0 0 1026 688;" xml:space="preserve">
<style type="text/css">
	.st0{fill:none;stroke:#545050;stroke-miterlimit:10;}
	.st1{fill:#545050;}
	.st2{font-family:'Oswald-Regular';}
	.st3{font-size:25px;}
	.st4{fill:#F4E8DF;}
	.st5{fill:#E8D1C1;}
	.st6{fill:#91968D;}
	.st7{fill:#878370;}
	.st8{fill:#585858;}
	.st9{font-family:'Oswald-Bold';}
	.st10{font-size:28px;}
	.st11{fill:#757575;}
	.st12{font-family:'Oswald-Medium';}
	.st13{font-size:40px;}
	.st14{font-family:'Oswald-Light';}
	.st15{font-size:20px;}
	.st16{fill:#FFFFFF;}
	.st17{fill:none;}
	.st18{font-size:23px;}
</style>
<g>
	<g>
		<line class="st0" x1="66.63" y1="480.73" x2="647.16" y2="480.73"/>
		<g>
			<g>
				<line class="st0" x1="66.63" y1="480.73" x2="66.63" y2="470.5"/>
				<line class="st0" x1="211.76" y1="480.73" x2="211.76" y2="470.5"/>
				<line class="st0" x1="356.9" y1="480.73" x2="356.9" y2="470.5"/>
				<line class="st0" x1="502.03" y1="480.73" x2="502.03" y2="470.5"/>
				<line class="st0" x1="647.16" y1="480.73" x2="647.16" y2="470.5"/>
			</g>
			<g>
			</g>
		</g>
	</g>
	<g>
		<g>
			<text transform="matrix(1 0 0 1 44.6328 490.9326)" class="st1 st2 st3">0</text>
			<text transform="matrix(1 0 0 1 32.6826 422.7695)" class="st1 st2 st3">20</text>
			<text transform="matrix(1 0 0 1 32.5581 354.6074)" class="st1 st2 st3">40</text>
			<text transform="matrix(1 0 0 1 32.0581 286.4434)" class="st1 st2 st3">60</text>
			<text transform="matrix(1 0 0 1 32.1577 218.2812)" class="st1 st2 st3">80</text>
			<text transform="matrix(1 0 0 1 21.8076 150.1177)" class="st1 st2 st3">100</text>
		</g>
		<line class="st0" x1="66.63" y1="480.73" x2="66.63" y2="71.75"/>
		<g>
			<g>
				<line class="st0" x1="66.63" y1="480.73" x2="81.14" y2="480.73"/>
				<line class="st0" x1="66.63" y1="412.56" x2="81.14" y2="412.56"/>
				<line class="st0" x1="66.63" y1="344.4" x2="81.14" y2="344.4"/>
				<line class="st0" x1="66.63" y1="276.24" x2="81.14" y2="276.24"/>
				<line class="st0" x1="66.63" y1="208.08" x2="81.14" y2="208.08"/>
				<line class="st0" x1="66.63" y1="139.91" x2="81.14" y2="139.91"/>
				<line class="st0" x1="66.63" y1="71.75" x2="66.5" y2="71.5"/>
			</g>
			<g>
			</g>
		</g>
	</g>
	<g>
		<g>
			<rect x="737.34" y="157.75" class="st4" width="43.18" height="40.9"/>
			<g>
				<rect x="86.95" y="139.57" class="st4" width="104.5" height="1.7"/>
				<rect x="232.08" y="139.91" class="st4" width="104.5" height="4.77"/>
				<rect x="377.21" y="140.25" class="st4" width="104.5" height="7.16"/>
				<rect x="522.35" y="139.91" class="st4" width="104.5" height="9.88"/>
			</g>
		</g>
		<g>
			<rect x="737.34" y="219.1" class="st5" width="43.18" height="40.9"/>
			<g>
				<rect x="86.95" y="141.28" class="st5" width="104.5" height="8.86"/>
				<rect x="232.08" y="144.68" class="st5" width="104.5" height="25.9"/>
				<rect x="377.21" y="147.41" class="st5" width="104.5" height="33.4"/>
				<rect x="522.35" y="149.8" class="st5" width="104.5" height="37.15"/>
			</g>
		</g>
		<g>
			<rect x="737.34" y="280.44" class="st6" width="43.18" height="40.9"/>
			<g>
				<rect x="86.95" y="150.14" class="st6" width="104.5" height="19.43"/>
				<rect x="232.08" y="170.59" class="st6" width="104.5" height="36.81"/>
				<rect x="377.21" y="180.81" class="st6" width="104.5" height="35.44"/>
				<rect x="522.35" y="186.95" class="st6" width="104.5" height="33.4"/>
			</g>
		</g>
		<g>
			<rect x="737.34" y="341.79" class="st7" width="43.18" height="40.9"/>
			<g>
				<rect x="86.95" y="169.56" class="st7" width="104.5" height="133.94"/>
				<rect x="232.08" y="207.39" class="st7" width="104.5" height="121.67"/>
				<rect x="377.21" y="216.26" class="st7" width="104.5" height="102.59"/>
				<rect x="522.35" y="220.35" class="st7" width="104.5" height="92.7"/>
			</g>
		</g>
		<g>
			<rect x="737.34" y="403.14" class="st8" width="43.18" height="40.9"/>
			<g>
				<rect x="86.95" y="303.5" class="st8" width="104.5" height="177.22"/>
				<rect x="232.08" y="329.07" class="st8" width="104.5" height="151.66"/>
				<rect x="377.21" y="318.84" class="st8" width="104.5" height="161.89"/>
				<rect x="522.35" y="313.05" class="st8" width="104.5" height="167.68"/>
			</g>
		</g>
	</g>
	<g>
		<g>
		</g>
		<g>
		</g>
		<g>
		</g>
		<g>
		</g>
		<g>
		</g>
	</g>
	<g>
		<g>
		</g>
		<text transform="matrix(1 0 0 1 804.2822 188.4038)" class="st1 st2 st3">$50,000-</text>
		<text transform="matrix(1 0 0 1 804.2822 249.7505)" class="st1 st2 st3">$25,000-50,000</text>
		<text transform="matrix(1 0 0 1 804.2822 311.0967)" class="st1 st2 st3">$15,000-25,000</text>
		<text transform="matrix(1 0 0 1 804.2822 372.4434)" class="st1 st2 st3">&lt; $15,000</text>
		<text transform="matrix(1 0 0 1 804.2822 433.791)" class="st1 st9 st3">No Earnings</text>
	</g>
	<g>
		<text transform="matrix(1 0 0 1 534.3467 511.5273)"><tspan x="0" y="0" class="st1 st2 st10">4 years </tspan><tspan x="16.49" y="33.6" class="st1 st2 st10">l</tspan><tspan x="22.9" y="33.6" class="st1 st2 st10">a</tspan><tspan x="34.61" y="33.6" class="st1 st2 st10">ter</tspan></text>
		<text transform="matrix(1 0 0 1 389.2969 511.5273)"><tspan x="0" y="0" class="st1 st2 st10">3 years </tspan><tspan x="16.41" y="33.6" class="st1 st2 st10">l</tspan><tspan x="22.82" y="33.6" class="st1 st2 st10">a</tspan><tspan x="34.52" y="33.6" class="st1 st2 st10">ter</tspan></text>
		<text transform="matrix(1 0 0 1 244.1489 511.5273)"><tspan x="0" y="0" class="st1 st2 st10">2 years </tspan><tspan x="16.42" y="33.6" class="st1 st2 st10">l</tspan><tspan x="22.83" y="33.6" class="st1 st2 st10">a</tspan><tspan x="34.54" y="33.6" class="st1 st2 st10">ter</tspan></text>
		<text transform="matrix(1 0 0 1 105.3999 511.5273)"><tspan x="0" y="0" class="st1 st2 st10">1 year </tspan><tspan x="10.04" y="33.6" class="st1 st2 st10">l</tspan><tspan x="16.45" y="33.6" class="st1 st2 st10">a</tspan><tspan x="28.15" y="33.6" class="st1 st2 st10">ter</tspan></text>
	</g>
</g>
<text transform="matrix(1 0 0 1 28.4995 60.4053)" class="st11 st12 st13">Average Annual Earning for Former Inmates After Release (%)</text>
<text transform="matrix(1 0 0 1 65.3115 582.2617)"><tspan x="0" y="0" class="st11 st14 st15">Individuals age 18-64 in prison for at least one year as reported by states and Federal Bureau of Prisons </tspan><tspan x="0" y="24" class="st11 st14 st15">to IRS 2009-2013 and linked to earnings and filing records 1999-2014.</tspan></text>
<g>
	<g>
		<path class="st16" d="M59.94,76.59c1.52,0.04,3.05,0.07,4.57,0.11c1.59,0.04,1.9-1.99,0.76-2.8c-0.24-0.77-0.47-1.55-0.71-2.32
			c-0.96,0-1.93,0-2.89,0c2.25,5.94,3,11.93,2.29,18.23c-0.19,1.67,2.62,2.05,2.95,0.4c1.4-7.2,0.62-13.97-2.32-20.69
			c-0.73-1.65-3.03-0.4-2.74,1.16c2.16,11.65,2.92,23.39,2.35,35.22c-0.04,0.93,1,1.76,1.9,1.45c0.16-0.06,0.31-0.11,0.47-0.17
			c0.65-0.23,1.08-0.75,1.1-1.45c0.08-2.4-2.45-3.83-4.22-2.09c-1.74,1.7-0.44,4.46-0.01,6.36c1.05,4.68,1.21,9.22,0.61,13.96
			c-0.24,1.91,2.76,1.89,3,0c0.42-3.32,0.52-6.58,0.13-9.91c-0.12-1.04-0.26-2.04-0.46-3.08c-0.13-0.59-0.26-1.18-0.39-1.77
			c-0.16-1.34-0.72-2.5-1.67-3.47c0.37-0.48,0.73-0.96,1.1-1.45c-0.16,0.06-0.31,0.11-0.47,0.17c0.63,0.48,1.27,0.96,1.9,1.45
			c0.58-12.1-0.26-24.11-2.46-36.01c-0.91,0.39-1.83,0.77-2.74,1.16c2.58,5.88,3.24,12.08,2.02,18.38c0.98,0.13,1.96,0.27,2.95,0.4
			c0.74-6.57-0.06-12.85-2.4-19.03c-0.51-1.34-2.45-1.5-2.89,0c-0.74,2.49,0.01,4.25,2.09,5.71c0.25-0.93,0.5-1.86,0.76-2.8
			c-1.52-0.04-3.05-0.07-4.57-0.11C58.01,73.55,58.01,76.55,59.94,76.59L59.94,76.59z"/>
	</g>
</g>
<g>
	<g>
		<path class="st16" d="M68.56,111.02c0.06-9.18,0.17-18.37,0.19-27.55c0.01-5.07-0.3-10.66-5.2-13.41
			c-1.16-0.65-2.51,0.42-2.2,1.69c1.65,6.76,3.29,13.53,4.94,20.29c0.36,1.46,2.5,1.39,2.89,0c1.69-5.99,0.36-11.68-3.7-16.37
			c-0.88-1.02-2.55-0.17-2.56,1.06c-0.08,6.64-0.16,13.28-0.25,19.91c-0.02,1.93,2.98,1.93,3,0c0.08-6.64,0.16-13.28,0.25-19.91
			c-0.85,0.35-1.71,0.71-2.56,1.06c3.35,3.88,4.31,8.56,2.93,13.46c0.96,0,1.93,0,2.89,0c-1.65-6.76-3.29-13.53-4.94-20.29
			c-0.73,0.56-1.47,1.13-2.2,1.69c5.54,3.1,3.69,13.21,3.66,18.42c-0.05,6.65-0.09,13.3-0.14,19.95
			C65.54,112.95,68.54,112.96,68.56,111.02L68.56,111.02z"/>
	</g>
</g>
<g>
	<g>
		<path class="st16" d="M71.95,91.23c7.85,0,15.36-6.9,15-15c-0.36-8.13-6.59-15-15-15c-7.85,0-15.36,6.9-15,15
			C57.32,84.36,63.54,91.23,71.95,91.23L71.95,91.23z"/>
	</g>
</g>
<g>
	<g>
		<path class="st16" d="M67.04,132.52c7.85,0,15.36-6.9,15-15c-0.36-8.13-6.59-15-15-15c-7.85,0-15.36,6.9-15,15
			C52.4,125.65,58.63,132.52,67.04,132.52L67.04,132.52z"/>
	</g>
</g>
<g>
	<g>
		<path class="st16" d="M67.04,137.75c5.79,0,5.8-9,0-9C61.25,128.75,61.24,137.75,67.04,137.75L67.04,137.75z"/>
	</g>
</g>
<g>
	<g>
		<path class="st16" d="M67.04,138.74c5.79,0,5.8-9,0-9C61.25,129.74,61.24,138.74,67.04,138.74L67.04,138.74z"/>
	</g>
</g>
<g>
	<g>
		<path class="st16" d="M59.74,104.74c0-0.33,0-0.66,0-0.98c0-1.15-0.5-2.37-1.32-3.18c-0.78-0.78-2.06-1.37-3.18-1.32
			c-1.16,0.05-2.37,0.43-3.18,1.32c-0.81,0.88-1.32,1.96-1.32,3.18c0,0.33,0,0.66,0,0.98c0,1.15,0.5,2.37,1.32,3.18
			c0.78,0.78,2.06,1.37,3.18,1.32c1.16-0.05,2.37-0.43,3.18-1.32C59.23,107.04,59.74,105.96,59.74,104.74L59.74,104.74z"/>
	</g>
</g>
<polyline class="st17" points="578.7,635.58 578.7,688.32 66.6,688.32 66.6,635.58 "/>
<text transform="matrix(1 0 0 1 66.5972 654.2109)" class="st11 st14 st18">Source: The Brookings Institution</text>
<g>
	<g>
		<path class="st16" d="M59.94,76.59c1.52,0.04,3.05,0.07,4.57,0.11c1.59,0.04,1.9-1.99,0.76-2.8c-0.24-0.77-0.47-1.55-0.71-2.32
			c-0.96,0-1.93,0-2.89,0c2.25,5.94,3,11.93,2.29,18.23c-0.19,1.67,2.62,2.05,2.95,0.4c1.4-7.2,0.62-13.97-2.32-20.69
			c-0.73-1.65-3.03-0.4-2.74,1.16c2.16,11.65,2.92,23.39,2.35,35.22c-0.04,0.93,1,1.76,1.9,1.45c0.16-0.06,0.31-0.11,0.47-0.17
			c0.65-0.23,1.08-0.75,1.1-1.45c0.08-2.4-2.45-3.83-4.22-2.09c-1.74,1.7-0.44,4.46-0.01,6.36c1.05,4.68,1.21,9.22,0.61,13.96
			c-0.24,1.91,2.76,1.89,3,0c0.42-3.32,0.52-6.58,0.13-9.91c-0.12-1.04-0.26-2.04-0.46-3.08c-0.13-0.59-0.26-1.18-0.39-1.77
			c-0.16-1.34-0.72-2.5-1.67-3.47c0.37-0.48,0.73-0.96,1.1-1.45c-0.16,0.06-0.31,0.11-0.47,0.17c0.63,0.48,1.27,0.96,1.9,1.45
			c0.58-12.1-0.26-24.11-2.46-36.01c-0.91,0.39-1.83,0.77-2.74,1.16c2.58,5.88,3.24,12.08,2.02,18.38c0.98,0.13,1.96,0.27,2.95,0.4
			c0.74-6.57-0.06-12.85-2.4-19.03c-0.51-1.34-2.45-1.5-2.89,0c-0.74,2.49,0.01,4.25,2.09,5.71c0.25-0.93,0.5-1.86,0.76-2.8
			c-1.52-0.04-3.05-0.07-4.57-0.11C58.01,73.55,58.01,76.55,59.94,76.59L59.94,76.59z"/>
	</g>
</g>
<g>
	<g>
		<path class="st16" d="M68.56,111.02c0.06-9.18,0.17-18.37,0.19-27.55c0.01-5.07-0.3-10.66-5.2-13.41
			c-1.16-0.65-2.51,0.42-2.2,1.69c1.65,6.76,3.29,13.53,4.94,20.29c0.36,1.46,2.5,1.39,2.89,0c1.69-5.99,0.36-11.68-3.7-16.37
			c-0.88-1.02-2.55-0.17-2.56,1.06c-0.08,6.64-0.16,13.28-0.25,19.91c-0.02,1.93,2.98,1.93,3,0c0.08-6.64,0.16-13.28,0.25-19.91
			c-0.85,0.35-1.71,0.71-2.56,1.06c3.35,3.88,4.31,8.56,2.93,13.46c0.96,0,1.93,0,2.89,0c-1.65-6.76-3.29-13.53-4.94-20.29
			c-0.73,0.56-1.47,1.13-2.2,1.69c5.54,3.1,3.69,13.21,3.66,18.42c-0.05,6.65-0.09,13.3-0.14,19.95
			C65.54,112.95,68.54,112.96,68.56,111.02L68.56,111.02z"/>
	</g>
</g>
<g>
	<g>
		<path class="st16" d="M71.95,91.23c7.85,0,15.36-6.9,15-15c-0.36-8.13-6.59-15-15-15c-7.85,0-15.36,6.9-15,15
			C57.32,84.36,63.54,91.23,71.95,91.23L71.95,91.23z"/>
	</g>
</g>
<g>
	<g>
		<path class="st16" d="M67.04,132.52c7.85,0,15.36-6.9,15-15c-0.36-8.13-6.59-15-15-15c-7.85,0-15.36,6.9-15,15
			C52.4,125.65,58.63,132.52,67.04,132.52L67.04,132.52z"/>
	</g>
</g>
<g>
	<g>
		<path class="st16" d="M67.04,137.75c5.79,0,5.8-9,0-9C61.25,128.75,61.24,137.75,67.04,137.75L67.04,137.75z"/>
	</g>
</g>
<g>
	<g>
		<path class="st16" d="M67.04,138.74c5.79,0,5.8-9,0-9C61.25,129.74,61.24,138.74,67.04,138.74L67.04,138.74z"/>
	</g>
</g>
<g>
	<g>
		<path class="st16" d="M59.74,104.74c0-0.33,0-0.66,0-0.98c0-1.15-0.5-2.37-1.32-3.18c-0.78-0.78-2.06-1.37-3.18-1.32
			c-1.16,0.05-2.37,0.43-3.18,1.32c-0.81,0.88-1.32,1.96-1.32,3.18c0,0.33,0,0.66,0,0.98c0,1.15,0.5,2.37,1.32,3.18
			c0.78,0.78,2.06,1.37,3.18,1.32c1.16-0.05,2.37-0.43,3.18-1.32C59.23,107.04,59.74,105.96,59.74,104.74L59.74,104.74z"/>
	</g>
</g>
</svg>
