<?xml version="1.0" encoding="utf-8"?>
<!-- Generator: Adobe Illustrator 22.1.0, SVG Export Plug-In . SVG Version: 6.00 Build 0)  -->
<svg version="1.1" id="Layer_1" xmlns="http://www.w3.org/2000/svg" xmlns:xlink="http://www.w3.org/1999/xlink" x="0px" y="0px"
	 viewBox="0 0 600 371" style="enable-background:new 0 0 600 371;" xml:space="preserve">
<style type="text/css">
	.st0{fill:#FFFFFF;}
	.st1{display:none;fill:none;stroke:#CCCCCC;stroke-miterlimit:10;}
	.st2{fill:none;stroke:#757575;stroke-miterlimit:10;}
	.st3{fill:none;stroke:#757575;stroke-miterlimit:10;stroke-dasharray:1,1;}
	.st4{fill:none;stroke:#757575;stroke-miterlimit:10;stroke-dasharray:0.9973,0.9973;}
	.st5{opacity:0.5;}
	.st6{fill:none;stroke:#757575;stroke-width:0.25;stroke-miterlimit:10;}
	.st7{fill:none;stroke:#757575;stroke-width:0.25;stroke-miterlimit:10;stroke-dasharray:1,1;}
	.st8{fill:none;stroke:#757575;stroke-width:0.25;stroke-miterlimit:10;stroke-dasharray:1.0013,1.0013;}
	.st9{fill:none;stroke:#757575;stroke-width:0.5;stroke-miterlimit:10;}
	.st10{clip-path:url(#SVGID_2_);fill:none;}
	.st11{clip-path:url(#SVGID_4_);fill:#EED9BC;}
	.st12{clip-path:url(#SVGID_6_);fill:none;}
	.st13{clip-path:url(#SVGID_8_);fill:#EED9BC;}
	.st14{clip-path:url(#SVGID_10_);fill:none;}
	.st15{clip-path:url(#SVGID_12_);fill:#EED9BC;}
	.st16{clip-path:url(#SVGID_14_);fill:none;}
	.st17{clip-path:url(#SVGID_16_);fill:#EED9BC;}
	.st18{clip-path:url(#SVGID_18_);fill:none;}
	.st19{clip-path:url(#SVGID_20_);fill:#DAE1DD;}
	.st20{clip-path:url(#SVGID_22_);fill:none;}
	.st21{clip-path:url(#SVGID_24_);fill:#DAE1DD;}
	.st22{clip-path:url(#SVGID_26_);fill:none;}
	.st23{clip-path:url(#SVGID_28_);fill:#DAE1DD;}
	.st24{clip-path:url(#SVGID_30_);fill:none;}
	.st25{clip-path:url(#SVGID_32_);fill:#DAE1DD;}
	.st26{clip-path:url(#SVGID_34_);fill:none;}
	.st27{clip-path:url(#SVGID_36_);fill:#ADB2A4;}
	.st28{clip-path:url(#SVGID_38_);fill:none;}
	.st29{clip-path:url(#SVGID_40_);fill:#ADB2A4;}
	.st30{clip-path:url(#SVGID_42_);fill:none;}
	.st31{clip-path:url(#SVGID_44_);fill:#ADB2A4;}
	.st32{clip-path:url(#SVGID_46_);fill:none;}
	.st33{clip-path:url(#SVGID_48_);fill:#ADB2A4;}
	.st34{fill:#EED9BC;}
	.st35{fill:#DAE1DD;}
	.st36{fill:#ADB2A4;}
	.st37{fill:#757575;}
	.st38{font-family:'Oswald-Regular';}
	.st39{font-size:9px;}
	.st40{font-family:'Oswald-Medium';}
	.st41{font-size:16px;}
</style>
<path class="st0" d="M600,371H0"/>
<path class="st1" d="M45.5,263.5h536"/>
<path class="st1" d="M45.5,228.5h536"/>
<path class="st1" d="M45.5,194.5h536"/>
<path class="st1" d="M45.5,159.5h536"/>
<path class="st1" d="M45.5,124.5h536"/>
<path class="st1" d="M45.5,89.5h536"/>
<g id="NxS2KQ_1_">
</g>
<g id="dQdbcW_1_">
</g>
<g>
	<rect class="st0" width="600" height="371"/>
	<g>
		<polyline class="st2" points="0,0.5 0,0 0.5,0 		"/>
		<line class="st3" x1="1.5" y1="0" x2="599" y2="0"/>
		<polyline class="st2" points="599.5,0 600,0 600,0.5 		"/>
		<line class="st4" x1="600" y1="1.5" x2="600" y2="370"/>
		<polyline class="st2" points="600,370.5 600,371 599.5,371 		"/>
		<line class="st3" x1="598.5" y1="371" x2="1" y2="371"/>
		<polyline class="st2" points="0.5,371 0,371 0,370.5 		"/>
		<line class="st4" x1="0" y1="369.5" x2="0" y2="1"/>
	</g>
</g>
<g id="Layer_2">
	<g class="st5">
		<g>
			<line class="st6" x1="46" y1="263.5" x2="46.5" y2="263.5"/>
			<line class="st7" x1="47.5" y1="263.5" x2="537" y2="263.5"/>
			<line class="st6" x1="537.5" y1="263.5" x2="538" y2="263.5"/>
		</g>
	</g>
	<g class="st5">
		<g>
			<line class="st6" x1="46" y1="228.5" x2="46.5" y2="228.5"/>
			<line class="st7" x1="47.5" y1="228.5" x2="537" y2="228.5"/>
			<line class="st6" x1="537.5" y1="228.5" x2="538" y2="228.5"/>
		</g>
	</g>
	<g class="st5">
		<g>
			<line class="st6" x1="46" y1="195.1" x2="46.5" y2="195.1"/>
			<line class="st7" x1="47.5" y1="195.1" x2="537" y2="195.1"/>
			<line class="st6" x1="537.5" y1="195.1" x2="538" y2="195.1"/>
		</g>
	</g>
	<g class="st5">
		<g>
			<line class="st6" x1="46" y1="160.4" x2="46.5" y2="160.4"/>
			<line class="st7" x1="47.5" y1="160.4" x2="537" y2="160.4"/>
			<line class="st6" x1="537.5" y1="160.4" x2="538" y2="160.4"/>
		</g>
	</g>
	<g class="st5">
		<g>
			<line class="st6" x1="157.5" y1="125.2" x2="158" y2="125.2"/>
			<line class="st8" x1="159" y1="125.2" x2="537" y2="125.2"/>
			<line class="st6" x1="537.5" y1="125.2" x2="538" y2="125.2"/>
		</g>
	</g>
	<g class="st5">
		<g>
			<line class="st6" x1="157.5" y1="90.1" x2="158" y2="90.1"/>
			<line class="st8" x1="159" y1="90.1" x2="537" y2="90.1"/>
			<line class="st6" x1="537.5" y1="90.1" x2="538" y2="90.1"/>
		</g>
	</g>
</g>
<path class="st9" d="M45.5,298.5h536"/>
<g>
	<g>
		<g>
			<g>
				<defs>
					<rect id="SVGID_1_" x="45.5" y="89.8" width="535.9" height="208.7"/>
				</defs>
				<clipPath id="SVGID_2_">
					<use xlink:href="#SVGID_1_"  style="overflow:visible;"/>
				</clipPath>
				<path class="st10" d="M115,298H89v-5c0-1.1,0.9-2,2-2h22c1.1,0,2,0.9,2,2V298z"/>
			</g>
		</g>
	</g>
</g>
<g>
	<g>
		<g>
			<g>
				<defs>
					<rect id="SVGID_3_" x="45.5" y="89.8" width="535.9" height="208.7"/>
				</defs>
				<clipPath id="SVGID_4_">
					<use xlink:href="#SVGID_3_"  style="overflow:visible;"/>
				</clipPath>
				<path class="st11" d="M115,298H89v-5c0-1.1,0.9-2,2-2h22c1.1,0,2,0.9,2,2V298z"/>
			</g>
		</g>
	</g>
</g>
<g>
	<g>
		<g>
			<g>
				<defs>
					<rect id="SVGID_5_" x="45.5" y="89.8" width="535.9" height="208.7"/>
				</defs>
				<clipPath id="SVGID_6_">
					<use xlink:href="#SVGID_5_"  style="overflow:visible;"/>
				</clipPath>
				<path class="st12" d="M238,298h-26v-13c0-1.1,0.9-2,2-2h22c1.1,0,2,0.9,2,2V298z"/>
			</g>
		</g>
	</g>
</g>
<g>
	<g>
		<g>
			<g>
				<defs>
					<rect id="SVGID_7_" x="45.5" y="89.8" width="535.9" height="208.7"/>
				</defs>
				<clipPath id="SVGID_8_">
					<use xlink:href="#SVGID_7_"  style="overflow:visible;"/>
				</clipPath>
				<path class="st13" d="M238,298h-26v-13c0-1.1,0.9-2,2-2h22c1.1,0,2,0.9,2,2V298z"/>
			</g>
		</g>
	</g>
</g>
<g>
	<g>
		<g>
			<g>
				<defs>
					<rect id="SVGID_9_" x="45.5" y="89.8" width="535.9" height="208.7"/>
				</defs>
				<clipPath id="SVGID_10_">
					<use xlink:href="#SVGID_9_"  style="overflow:visible;"/>
				</clipPath>
				<path class="st14" d="M361,298h-26v-22c0-1.1,0.9-2,2-2h22c1.1,0,2,0.9,2,2V298z"/>
			</g>
		</g>
	</g>
</g>
<g>
	<g>
		<g>
			<g>
				<defs>
					<rect id="SVGID_11_" x="45.5" y="89.8" width="535.9" height="208.7"/>
				</defs>
				<clipPath id="SVGID_12_">
					<use xlink:href="#SVGID_11_"  style="overflow:visible;"/>
				</clipPath>
				<path class="st15" d="M361,298h-26v-22c0-1.1,0.9-2,2-2h22c1.1,0,2,0.9,2,2V298z"/>
			</g>
		</g>
	</g>
</g>
<g>
	<g>
		<g>
			<g>
				<defs>
					<rect id="SVGID_13_" x="45.5" y="89.8" width="535.9" height="208.7"/>
				</defs>
				<clipPath id="SVGID_14_">
					<use xlink:href="#SVGID_13_"  style="overflow:visible;"/>
				</clipPath>
				<path class="st16" d="M484,298h-26v-29c0-1.1,0.9-2,2-2h22c1.1,0,2,0.9,2,2V298z"/>
			</g>
		</g>
	</g>
</g>
<g>
	<g>
		<g>
			<g>
				<defs>
					<rect id="SVGID_15_" x="45.5" y="89.8" width="535.9" height="208.7"/>
				</defs>
				<clipPath id="SVGID_16_">
					<use xlink:href="#SVGID_15_"  style="overflow:visible;"/>
				</clipPath>
				<path class="st17" d="M484,298h-26v-29c0-1.1,0.9-2,2-2h22c1.1,0,2,0.9,2,2V298z"/>
			</g>
		</g>
	</g>
</g>
<g>
	<g>
		<g>
			<g>
				<defs>
					<rect id="SVGID_17_" x="45.5" y="89.8" width="535.9" height="208.7"/>
				</defs>
				<clipPath id="SVGID_18_">
					<use xlink:href="#SVGID_17_"  style="overflow:visible;"/>
				</clipPath>
				<path class="st18" d="M142,298h-26v-43c0-1.1,0.9-2,2-2h22c1.1,0,2,0.9,2,2V298z"/>
			</g>
		</g>
	</g>
</g>
<g>
	<g>
		<g>
			<g>
				<defs>
					<rect id="SVGID_19_" x="45.5" y="89.8" width="535.9" height="208.7"/>
				</defs>
				<clipPath id="SVGID_20_">
					<use xlink:href="#SVGID_19_"  style="overflow:visible;"/>
				</clipPath>
				<path class="st19" d="M142,298h-26v-43c0-1.1,0.9-2,2-2h22c1.1,0,2,0.9,2,2V298z"/>
			</g>
		</g>
	</g>
</g>
<g>
	<g>
		<g>
			<g>
				<defs>
					<rect id="SVGID_21_" x="45.5" y="89.8" width="535.9" height="208.7"/>
				</defs>
				<clipPath id="SVGID_22_">
					<use xlink:href="#SVGID_21_"  style="overflow:visible;"/>
				</clipPath>
				<path class="st20" d="M265,298h-26V186c0-1.1,0.9-2,2-2h22c1.1,0,2,0.9,2,2V298z"/>
			</g>
		</g>
	</g>
</g>
<g>
	<g>
		<g>
			<g>
				<defs>
					<rect id="SVGID_23_" x="45.5" y="89.8" width="535.9" height="208.7"/>
				</defs>
				<clipPath id="SVGID_24_">
					<use xlink:href="#SVGID_23_"  style="overflow:visible;"/>
				</clipPath>
				<path class="st21" d="M265,298h-26V186c0-1.1,0.9-2,2-2h22c1.1,0,2,0.9,2,2V298z"/>
			</g>
		</g>
	</g>
</g>
<g>
	<g>
		<g>
			<g>
				<defs>
					<rect id="SVGID_25_" x="45.5" y="89.8" width="535.9" height="208.7"/>
				</defs>
				<clipPath id="SVGID_26_">
					<use xlink:href="#SVGID_25_"  style="overflow:visible;"/>
				</clipPath>
				<path class="st22" d="M388,298h-26V125c0-1.1,0.9-2,2-2h22c1.1,0,2,0.9,2,2V298z"/>
			</g>
		</g>
	</g>
</g>
<g>
	<g>
		<g>
			<g>
				<defs>
					<rect id="SVGID_27_" x="45.5" y="89.8" width="535.9" height="208.7"/>
				</defs>
				<clipPath id="SVGID_28_">
					<use xlink:href="#SVGID_27_"  style="overflow:visible;"/>
				</clipPath>
				<path class="st23" d="M388,298h-26V125c0-1.1,0.9-2,2-2h22c1.1,0,2,0.9,2,2V298z"/>
			</g>
		</g>
	</g>
</g>
<g>
	<g>
		<g>
			<g>
				<defs>
					<rect id="SVGID_29_" x="45.5" y="89.8" width="535.9" height="208.7"/>
				</defs>
				<clipPath id="SVGID_30_">
					<use xlink:href="#SVGID_29_"  style="overflow:visible;"/>
				</clipPath>
				<path class="st24" d="M511,298h-26V102c0-1.1,0.9-2,2-2h22c1.1,0,2,0.9,2,2V298z"/>
			</g>
		</g>
	</g>
</g>
<g>
	<g>
		<g>
			<g>
				<defs>
					<rect id="SVGID_31_" x="45.5" y="89.8" width="535.9" height="208.7"/>
				</defs>
				<clipPath id="SVGID_32_">
					<use xlink:href="#SVGID_31_"  style="overflow:visible;"/>
				</clipPath>
				<path class="st25" d="M511,298h-26V102c0-1.1,0.9-2,2-2h22c1.1,0,2,0.9,2,2V298z"/>
			</g>
		</g>
	</g>
</g>
<g>
	<g>
		<g>
			<g>
				<defs>
					<rect id="SVGID_33_" x="45.5" y="89.8" width="535.9" height="208.7"/>
				</defs>
				<clipPath id="SVGID_34_">
					<use xlink:href="#SVGID_33_"  style="overflow:visible;"/>
				</clipPath>
				<path class="st26" d="M169,298h-26v-20c0-1.1,0.9-2,2-2h22c1.1,0,2,0.9,2,2V298z"/>
			</g>
		</g>
	</g>
</g>
<g>
	<g>
		<g>
			<g>
				<defs>
					<rect id="SVGID_35_" x="45.5" y="89.8" width="535.9" height="208.7"/>
				</defs>
				<clipPath id="SVGID_36_">
					<use xlink:href="#SVGID_35_"  style="overflow:visible;"/>
				</clipPath>
				<path class="st27" d="M169,298h-26v-20c0-1.1,0.9-2,2-2h22c1.1,0,2,0.9,2,2V298z"/>
			</g>
		</g>
	</g>
</g>
<g>
	<g>
		<g>
			<g>
				<defs>
					<rect id="SVGID_37_" x="45.5" y="89.8" width="535.9" height="208.7"/>
				</defs>
				<clipPath id="SVGID_38_">
					<use xlink:href="#SVGID_37_"  style="overflow:visible;"/>
				</clipPath>
				<path class="st28" d="M292,298h-26v-53c0-1.1,0.9-2,2-2h22c1.1,0,2,0.9,2,2V298z"/>
			</g>
		</g>
	</g>
</g>
<g>
	<g>
		<g>
			<g>
				<defs>
					<rect id="SVGID_39_" x="45.5" y="89.8" width="535.9" height="208.7"/>
				</defs>
				<clipPath id="SVGID_40_">
					<use xlink:href="#SVGID_39_"  style="overflow:visible;"/>
				</clipPath>
				<path class="st29" d="M292,298h-26v-53c0-1.1,0.9-2,2-2h22c1.1,0,2,0.9,2,2V298z"/>
			</g>
		</g>
	</g>
</g>
<g>
	<g>
		<g>
			<g>
				<defs>
					<rect id="SVGID_41_" x="45.5" y="89.8" width="535.9" height="208.7"/>
				</defs>
				<clipPath id="SVGID_42_">
					<use xlink:href="#SVGID_41_"  style="overflow:visible;"/>
				</clipPath>
				<path class="st30" d="M415,298h-26v-62c0-1.1,0.9-2,2-2h22c1.1,0,2,0.9,2,2V298z"/>
			</g>
		</g>
	</g>
</g>
<g>
	<g>
		<g>
			<g>
				<defs>
					<rect id="SVGID_43_" x="45.5" y="89.8" width="535.9" height="208.7"/>
				</defs>
				<clipPath id="SVGID_44_">
					<use xlink:href="#SVGID_43_"  style="overflow:visible;"/>
				</clipPath>
				<path class="st31" d="M415,298h-26v-62c0-1.1,0.9-2,2-2h22c1.1,0,2,0.9,2,2V298z"/>
			</g>
		</g>
	</g>
</g>
<g>
	<g>
		<g>
			<g>
				<defs>
					<rect id="SVGID_45_" x="45.5" y="89.8" width="535.9" height="208.7"/>
				</defs>
				<clipPath id="SVGID_46_">
					<use xlink:href="#SVGID_45_"  style="overflow:visible;"/>
				</clipPath>
				<path class="st32" d="M538,298h-26v-58c0-1.1,0.9-2,2-2h22c1.1,0,2,0.9,2,2V298z"/>
			</g>
		</g>
	</g>
</g>
<g>
	<g>
		<g>
			<g>
				<defs>
					<rect id="SVGID_47_" x="45.5" y="89.8" width="535.9" height="208.7"/>
				</defs>
				<clipPath id="SVGID_48_">
					<use xlink:href="#SVGID_47_"  style="overflow:visible;"/>
				</clipPath>
				<path class="st33" d="M538,298h-26v-58c0-1.1,0.9-2,2-2h22c1.1,0,2,0.9,2,2V298z"/>
			</g>
		</g>
	</g>
</g>
<rect x="89.1" y="85.6" class="st34" width="13.8" height="13.8"/>
<rect x="89.1" y="105.9" class="st35" width="13.8" height="13.8"/>
<rect x="89.1" y="126.1" class="st36" width="13.8" height="13.8"/>
<text transform="matrix(1 0 0 1 105.8612 99.4594)" class="st37 st38 st39">White</text>
<text transform="matrix(1 0 0 1 105.8612 119.7183)" class="st37 st38 st39">Black</text>
<text transform="matrix(1 0 0 1 105.8612 139.9771)" class="st37 st38 st39">Hispanic</text>
<text transform="matrix(1 0 0 1 55.4195 43.7329)" class="st37 st40 st41">Percent of Children Under Age 18 with an Incarcerated Parent in the U.S. (%)</text>
<text transform="matrix(1 0 0 1 31.3443 94.7865)" class="st37 st40 st39">12</text>
<text transform="matrix(1 0 0 1 31.0018 128.5067)" class="st37 st40 st39">10</text>
<text transform="matrix(1 0 0 1 34.746 163.8938)" class="st37 st40 st39">8</text>
<text transform="matrix(1 0 0 1 34.6467 198.2516)" class="st37 st40 st39">6</text>
<text transform="matrix(1 0 0 1 34.7997 232.6161)" class="st37 st40 st39">4</text>
<text transform="matrix(1 0 0 1 34.8722 268.0457)" class="st37 st40 st39">2</text>
<text transform="matrix(1 0 0 1 35.1421 302.6973)" class="st37 st40 st39">0</text>
<text transform="matrix(1 0 0 1 119.8823 314.2042)" class="st37 st40 st39">1980</text>
<text transform="matrix(1 0 0 1 243.2133 314.2043)" class="st37 st40 st39">1990</text>
<text transform="matrix(1 0 0 1 365.2176 314.2042)" class="st37 st40 st39">2000</text>
<text transform="matrix(1 0 0 1 489.3831 314.2046)" class="st37 st40 st39">2008</text>
<text transform="matrix(1 0 0 1 491.1523 99.4593)" class="st37 st38 st39">11.4</text>
<text transform="matrix(1 0 0 1 520.3176 236.8628)" class="st37 st38 st39">3.5</text>
<text transform="matrix(1 0 0 1 465.101 266.5)" class="st37 st38 st39">1.8</text>
</svg>
