<?xml version="1.0" encoding="utf-8"?>
<!-- Generator: Adobe Illustrator 22.1.0, SVG Export Plug-In . SVG Version: 6.00 Build 0)  -->
<svg version="1.1" id="Layer_1" xmlns="http://www.w3.org/2000/svg" xmlns:xlink="http://www.w3.org/1999/xlink" x="0px" y="0px"
	 viewBox="0 0 600 371" style="enable-background:new 0 0 600 371;" xml:space="preserve">
<style type="text/css">
	.st0{fill:none;stroke:#797C71;stroke-width:2;stroke-miterlimit:10;}
	.st1{fill:none;stroke:#333333;stroke-miterlimit:10;}
	.st2{fill:none;stroke:#CCCCCC;stroke-miterlimit:10;}
	.st3{clip-path:url(#SVGID_2_);fill:#DAE1DD;fill-opacity:0.302;}
	.st4{clip-path:url(#SVGID_4_);fill:#E8D1C0;fill-opacity:0.302;}
	.st5{clip-path:url(#SVGID_6_);fill:none;stroke:#797C71;stroke-width:2;stroke-miterlimit:10;}
	.st6{clip-path:url(#SVGID_8_);fill:none;stroke:#C48D69;stroke-width:2;stroke-miterlimit:10;}
	.st7{clip-path:url(#SVGID_10_);fill-opacity:0;}
	.st8{clip-path:url(#SVGID_12_);fill-opacity:0;}
	.st9{clip-path:url(#SVGID_14_);fill-opacity:0;}
	.st10{clip-path:url(#SVGID_16_);fill-opacity:0;}
	.st11{clip-path:url(#SVGID_18_);fill-opacity:0;}
	.st12{clip-path:url(#SVGID_20_);fill-opacity:0;}
	.st13{clip-path:url(#SVGID_22_);fill-opacity:0;}
	.st14{clip-path:url(#SVGID_24_);fill-opacity:0;}
	.st15{clip-path:url(#SVGID_26_);fill-opacity:0;}
	.st16{clip-path:url(#SVGID_28_);fill-opacity:0;}
	.st17{clip-path:url(#SVGID_30_);fill-opacity:0;}
	.st18{clip-path:url(#SVGID_32_);fill-opacity:0;}
	.st19{clip-path:url(#SVGID_34_);fill-opacity:0;}
	.st20{clip-path:url(#SVGID_36_);fill-opacity:0;}
	.st21{clip-path:url(#SVGID_38_);fill-opacity:0;}
	.st22{clip-path:url(#SVGID_40_);fill-opacity:0;}
	.st23{clip-path:url(#SVGID_42_);fill-opacity:0;}
	.st24{clip-path:url(#SVGID_44_);fill-opacity:0;}
	.st25{clip-path:url(#SVGID_46_);fill-opacity:0;}
	.st26{clip-path:url(#SVGID_48_);fill-opacity:0;}
	.st27{clip-path:url(#SVGID_50_);fill-opacity:0;}
	.st28{clip-path:url(#SVGID_52_);fill-opacity:0;}
	.st29{clip-path:url(#SVGID_54_);fill-opacity:0;}
	.st30{clip-path:url(#SVGID_56_);fill-opacity:0;}
	.st31{clip-path:url(#SVGID_58_);fill-opacity:0;}
	.st32{clip-path:url(#SVGID_60_);fill-opacity:0;}
	.st33{clip-path:url(#SVGID_62_);fill-opacity:0;}
	.st34{clip-path:url(#SVGID_64_);fill-opacity:0;}
	.st35{clip-path:url(#SVGID_66_);fill-opacity:0;}
	.st36{clip-path:url(#SVGID_68_);fill-opacity:0;}
	.st37{clip-path:url(#SVGID_70_);fill-opacity:0;}
	.st38{clip-path:url(#SVGID_72_);fill-opacity:0;}
	.st39{clip-path:url(#SVGID_74_);fill-opacity:0;}
	.st40{clip-path:url(#SVGID_76_);fill-opacity:0;}
	.st41{clip-path:url(#SVGID_78_);fill-opacity:0;}
	.st42{clip-path:url(#SVGID_80_);fill-opacity:0;}
	.st43{clip-path:url(#SVGID_82_);fill-opacity:0;}
	.st44{clip-path:url(#SVGID_84_);fill-opacity:0;}
	.st45{clip-path:url(#SVGID_86_);fill-opacity:0;}
	.st46{clip-path:url(#SVGID_88_);fill-opacity:0;}
	.st47{clip-path:url(#SVGID_90_);fill-opacity:0;}
	.st48{clip-path:url(#SVGID_92_);fill-opacity:0;}
	.st49{clip-path:url(#SVGID_94_);fill-opacity:0;}
	.st50{clip-path:url(#SVGID_96_);fill-opacity:0;}
	.st51{clip-path:url(#SVGID_98_);fill-opacity:0;}
	.st52{clip-path:url(#SVGID_100_);fill-opacity:0;}
	.st53{clip-path:url(#SVGID_102_);fill-opacity:0;}
	.st54{clip-path:url(#SVGID_104_);fill-opacity:0;}
	.st55{clip-path:url(#SVGID_106_);fill-opacity:0;}
	.st56{clip-path:url(#SVGID_108_);fill-opacity:0;}
	.st57{clip-path:url(#SVGID_110_);fill-opacity:0;}
	.st58{clip-path:url(#SVGID_112_);fill-opacity:0;}
	.st59{clip-path:url(#SVGID_114_);fill-opacity:0;}
	.st60{clip-path:url(#SVGID_116_);fill-opacity:0;}
	.st61{clip-path:url(#SVGID_118_);fill-opacity:0;}
	.st62{clip-path:url(#SVGID_120_);fill-opacity:0;}
	.st63{display:none;}
	.st64{display:inline;}
	.st65{clip-path:url(#SVGID_122_);fill-opacity:0;}
	.st66{clip-path:url(#SVGID_124_);fill-opacity:0;}
	.st67{clip-path:url(#SVGID_126_);fill-opacity:0;}
	.st68{clip-path:url(#SVGID_128_);fill-opacity:0;}
	.st69{clip-path:url(#SVGID_130_);fill-opacity:0;}
	.st70{clip-path:url(#SVGID_132_);fill-opacity:0;}
	.st71{clip-path:url(#SVGID_134_);fill-opacity:0;}
	.st72{clip-path:url(#SVGID_136_);fill-opacity:0;}
	.st73{clip-path:url(#SVGID_138_);fill-opacity:0;}
	.st74{clip-path:url(#SVGID_140_);fill-opacity:0;}
	.st75{clip-path:url(#SVGID_142_);fill-opacity:0;}
	.st76{clip-path:url(#SVGID_144_);fill-opacity:0;}
	.st77{clip-path:url(#SVGID_146_);fill-opacity:0;}
	.st78{clip-path:url(#SVGID_148_);fill-opacity:0;}
	.st79{clip-path:url(#SVGID_150_);fill-opacity:0;}
	.st80{clip-path:url(#SVGID_152_);fill-opacity:0;}
	.st81{clip-path:url(#SVGID_154_);fill-opacity:0;}
	.st82{clip-path:url(#SVGID_156_);fill-opacity:0;}
	.st83{fill:#C48D69;}
	.st84{fill:#797C71;}
	.st85{fill:#757575;}
	.st86{font-family:'Oswald-Medium';}
	.st87{font-size:16px;}
	.st88{font-family:'Oswald-Regular';}
	.st89{font-size:9px;}
	.st90{fill:none;stroke:#757575;stroke-miterlimit:10;}
	.st91{fill:#282828;}
	.st92{font-family:'Oswald-Light';}
</style>
<path class="st0" d="M0,0h600v371H0V0z"/>
<path class="st1" d="M73.5,298.5h508"/>
<path class="st2" d="M581.5,89.5"/>
<path class="st2" d="M73.5,89.5"/>
<g>
	<g>
		<g>
			<defs>
				<rect id="SVGID_1_" x="73.6" y="89.8" width="507.9" height="208.7"/>
			</defs>
			<clipPath id="SVGID_2_">
				<use xlink:href="#SVGID_1_"  style="overflow:visible;"/>
			</clipPath>
			<path class="st3" d="M73.6,295.9l14.1-0.4l14.1-0.2l14.1-0.2l14.1-0.3l14.1-0.6l14.1-0.4l14.1-0.4l14.1-0.2l14.1-1l14.1-0.7
				l14.1-0.6l14.1-0.9l14.1-1l14.1-0.6l14.1-0.6l14.1-0.5l14.1-0.8l14.1-1l14.1-1.3l14.1-1.1l14.1-1.2l14.1-0.7l14.1-1l14.1-0.8
				l14.1-0.8l14.1-0.6l14.1-0.7l14.1-0.2l14.1-0.7l14.1-0.2l14.1-0.7l14.1-0.1l14.1,0.2l14.1,0.6l14.1,1.5l14.1,0.8v19.7h-14.1H553
				h-14.1H525h-14.1h-14.1h-14.1h-14.1h-14.1h-14.1h-14.1h-14.1H398h-14.1h-14.1h-14.1h-14.1h-14.1h-14.1h-14.1h-14.1h-14.1H257
				h-14.1h-14.1h-14.1h-14.1h-14.1h-14.1h-14.1h-14.1H130h-14.1h-14.1H87.7H73.6V295.9z"/>
		</g>
	</g>
</g>
<g>
	<g>
		<g>
			<defs>
				<rect id="SVGID_3_" x="73.6" y="89.8" width="507.9" height="208.7"/>
			</defs>
			<clipPath id="SVGID_4_">
				<use xlink:href="#SVGID_3_"  style="overflow:visible;"/>
			</clipPath>
			<path class="st4" d="M73.6,264l14.1-4.2l14.1-4.6l14.1-2.4l14.1-2.6l14.1-4.2l14.1-4.4l14.1-4.2l14.1-4.4l14.1-8.8l14.1-6.4
				l14.1-5.4l14.1-5.9l14.1-9.1l14.1-8.9l14.1-7.4l14.1-5.8l14.1-6.1l14.1-6.9l14.1-5.9l14.1-3.2l14.1-1l14.1-3.8l14.1-3l14.1-3
				l14.1-3l14.1-4.5l14.1-2.9l14.1-1.2l14.1-0.8l14.1,0.2l14.1,1.5l14.1,3l14.1-0.7l14.1,1.5l14.1,3.7l14.1,2.2v137.3l-14.1-0.8
				l-14.1-1.5l-14.1-0.6l-14.1-0.2l-14.1,0.1l-14.1,0.7l-14.1,0.2l-14.1,0.7l-14.1,0.2l-14.1,0.7l-14.1,0.6l-14.1,0.8l-14.1,0.8
				l-14.1,1l-14.1,0.7l-14.1,1.2l-14.1,1.1l-14.1,1.3l-14.1,1l-14.1,0.8l-14.1,0.5l-14.1,0.6l-14.1,0.6l-14.1,1l-14.1,0.9l-14.1,0.6
				l-14.1,0.7l-14.1,1l-14.1,0.2l-14.1,0.4l-14.1,0.4L130,295l-14.1,0.3l-14.1,0.2l-14.1,0.2l-14.1,0.4
				C73.6,296.1,73.6,264,73.6,264z"/>
		</g>
	</g>
</g>
<g>
	<g>
		<g>
			<defs>
				<rect id="SVGID_5_" x="73.6" y="89.8" width="507.9" height="208.7"/>
			</defs>
			<clipPath id="SVGID_6_">
				<use xlink:href="#SVGID_5_"  style="overflow:visible;"/>
			</clipPath>
			<path class="st5" d="M73.6,295.9l14.1-0.4l14.1-0.2l14.1-0.2l14.1-0.3l14.1-0.6l14.1-0.4l14.1-0.4l14.1-0.2l14.1-1l14.1-0.7
				l14.1-0.6l14.1-0.9l14.1-1l14.1-0.6l14.1-0.6l14.1-0.5l14.1-0.8l14.1-1l14.1-1.3l14.1-1.1l14.1-1.2l14.1-0.7l14.1-1l14.1-0.8
				l14.1-0.8l14.1-0.6l14.1-0.7l14.1-0.2l14.1-0.7l14.1-0.2l14.1-0.7l14.1-0.1l14.1,0.2l14.1,0.6l14.1,1.5l14.1,0.8"/>
		</g>
	</g>
</g>
<g>
	<g>
		<g>
			<defs>
				<rect id="SVGID_7_" x="73.6" y="89.8" width="507.9" height="208.7"/>
			</defs>
			<clipPath id="SVGID_8_">
				<use xlink:href="#SVGID_7_"  style="overflow:visible;"/>
			</clipPath>
			<path class="st6" d="M73.6,264l14.1-4.2l14.1-4.6l14.1-2.4l14.1-2.6l14.1-4.2l14.1-4.4l14.1-4.2l14.1-4.4l14.1-8.8l14.1-6.4
				l14.1-5.4l14.1-5.9l14.1-9.1l14.1-8.9l14.1-7.4l14.1-5.8l14.1-6.1l14.1-6.9l14.1-5.9l14.1-3.2l14.1-1l14.1-3.8l14.1-3l14.1-3
				l14.1-3l14.1-4.5l14.1-2.9l14.1-1.2l14.1-0.8l14.1,0.2l14.1,1.5l14.1,3l14.1-0.7l14.1,1.5l14.1,3.7l14.1,2.2"/>
		</g>
	</g>
</g>
<g>
	<g>
		<g>
			<defs>
				<rect id="SVGID_9_" x="73.6" y="89.8" width="507.9" height="208.7"/>
			</defs>
			<clipPath id="SVGID_10_">
				<use xlink:href="#SVGID_9_"  style="overflow:visible;"/>
			</clipPath>
			<path class="st7" d="M76.6,295.9c0,1.7-1.3,3-3,3s-3-1.3-3-3s1.3-3,3-3C75.2,292.9,76.6,294.2,76.6,295.9z"/>
		</g>
	</g>
</g>
<g>
	<g>
		<g>
			<defs>
				<rect id="SVGID_11_" x="73.6" y="89.8" width="507.9" height="208.7"/>
			</defs>
			<clipPath id="SVGID_12_">
				<use xlink:href="#SVGID_11_"  style="overflow:visible;"/>
			</clipPath>
			<path class="st8" d="M90.7,295.5c0,1.7-1.3,3-3,3s-3-1.3-3-3s1.3-3,3-3S90.7,293.9,90.7,295.5z"/>
		</g>
	</g>
</g>
<g>
	<g>
		<g>
			<defs>
				<rect id="SVGID_13_" x="73.6" y="89.8" width="507.9" height="208.7"/>
			</defs>
			<clipPath id="SVGID_14_">
				<use xlink:href="#SVGID_13_"  style="overflow:visible;"/>
			</clipPath>
			<path class="st9" d="M104.8,295.4c0,1.7-1.3,3-3,3s-3-1.3-3-3s1.3-3,3-3C103.4,292.4,104.8,293.7,104.8,295.4z"/>
		</g>
	</g>
</g>
<g>
	<g>
		<g>
			<defs>
				<rect id="SVGID_15_" x="73.6" y="89.8" width="507.9" height="208.7"/>
			</defs>
			<clipPath id="SVGID_16_">
				<use xlink:href="#SVGID_15_"  style="overflow:visible;"/>
			</clipPath>
			<path class="st10" d="M118.9,295.1c0,1.7-1.3,3-3,3s-3-1.3-3-3s1.3-3,3-3S118.9,293.5,118.9,295.1z"/>
		</g>
	</g>
</g>
<g>
	<g>
		<g>
			<defs>
				<rect id="SVGID_17_" x="73.6" y="89.8" width="507.9" height="208.7"/>
			</defs>
			<clipPath id="SVGID_18_">
				<use xlink:href="#SVGID_17_"  style="overflow:visible;"/>
			</clipPath>
			<path class="st11" d="M133,294.9c0,1.7-1.3,3-3,3s-3-1.3-3-3s1.3-3,3-3C131.6,291.9,133,293.2,133,294.9z"/>
		</g>
	</g>
</g>
<g>
	<g>
		<g>
			<defs>
				<rect id="SVGID_19_" x="73.6" y="89.8" width="507.9" height="208.7"/>
			</defs>
			<clipPath id="SVGID_20_">
				<use xlink:href="#SVGID_19_"  style="overflow:visible;"/>
			</clipPath>
			<path class="st12" d="M147.1,294.3c0,1.7-1.3,3-3,3s-3-1.3-3-3s1.3-3,3-3C145.7,291.3,147.1,292.6,147.1,294.3z"/>
		</g>
	</g>
</g>
<g>
	<g>
		<g>
			<defs>
				<rect id="SVGID_21_" x="73.6" y="89.8" width="507.9" height="208.7"/>
			</defs>
			<clipPath id="SVGID_22_">
				<use xlink:href="#SVGID_21_"  style="overflow:visible;"/>
			</clipPath>
			<path class="st13" d="M161.2,293.8c0,1.7-1.3,3-3,3s-3-1.3-3-3s1.3-3,3-3S161.2,292.2,161.2,293.8z"/>
		</g>
	</g>
</g>
<g>
	<g>
		<g>
			<defs>
				<rect id="SVGID_23_" x="73.6" y="89.8" width="507.9" height="208.7"/>
			</defs>
			<clipPath id="SVGID_24_">
				<use xlink:href="#SVGID_23_"  style="overflow:visible;"/>
			</clipPath>
			<path class="st14" d="M175.3,293.4c0,1.7-1.3,3-3,3s-3-1.3-3-3s1.3-3,3-3S175.3,291.8,175.3,293.4z"/>
		</g>
	</g>
</g>
<g>
	<g>
		<g>
			<defs>
				<rect id="SVGID_25_" x="73.6" y="89.8" width="507.9" height="208.7"/>
			</defs>
			<clipPath id="SVGID_26_">
				<use xlink:href="#SVGID_25_"  style="overflow:visible;"/>
			</clipPath>
			<path class="st15" d="M189.4,293.2c0,1.7-1.3,3-3,3s-3-1.3-3-3s1.3-3,3-3C188.1,290.2,189.4,291.6,189.4,293.2z"/>
		</g>
	</g>
</g>
<g>
	<g>
		<g>
			<defs>
				<rect id="SVGID_27_" x="73.6" y="89.8" width="507.9" height="208.7"/>
			</defs>
			<clipPath id="SVGID_28_">
				<use xlink:href="#SVGID_27_"  style="overflow:visible;"/>
			</clipPath>
			<path class="st16" d="M203.5,292.3c0,1.7-1.3,3-3,3s-3-1.3-3-3s1.3-3,3-3S203.5,290.6,203.5,292.3z"/>
		</g>
	</g>
</g>
<g>
	<g>
		<g>
			<defs>
				<rect id="SVGID_29_" x="73.6" y="89.8" width="507.9" height="208.7"/>
			</defs>
			<clipPath id="SVGID_30_">
				<use xlink:href="#SVGID_29_"  style="overflow:visible;"/>
			</clipPath>
			<path class="st17" d="M217.6,291.6c0,1.7-1.3,3-3,3s-3-1.3-3-3s1.3-3,3-3S217.6,290,217.6,291.6z"/>
		</g>
	</g>
</g>
<g>
	<g>
		<g>
			<defs>
				<rect id="SVGID_31_" x="73.6" y="89.8" width="507.9" height="208.7"/>
			</defs>
			<clipPath id="SVGID_32_">
				<use xlink:href="#SVGID_31_"  style="overflow:visible;"/>
			</clipPath>
			<path class="st18" d="M231.7,291c0,1.7-1.3,3-3,3s-3-1.3-3-3s1.3-3,3-3S231.7,289.3,231.7,291z"/>
		</g>
	</g>
</g>
<g>
	<g>
		<g>
			<defs>
				<rect id="SVGID_33_" x="73.6" y="89.8" width="507.9" height="208.7"/>
			</defs>
			<clipPath id="SVGID_34_">
				<use xlink:href="#SVGID_33_"  style="overflow:visible;"/>
			</clipPath>
			<path class="st19" d="M245.9,290.1c0,1.7-1.3,3-3,3s-3-1.3-3-3s1.3-3,3-3C244.5,287.1,245.9,288.4,245.9,290.1z"/>
		</g>
	</g>
</g>
<g>
	<g>
		<g>
			<defs>
				<rect id="SVGID_35_" x="73.6" y="89.8" width="507.9" height="208.7"/>
			</defs>
			<clipPath id="SVGID_36_">
				<use xlink:href="#SVGID_35_"  style="overflow:visible;"/>
			</clipPath>
			<path class="st20" d="M260,289.1c0,1.7-1.3,3-3,3c-1.7,0-3-1.3-3-3s1.3-3,3-3C258.6,286.1,260,287.4,260,289.1z"/>
		</g>
	</g>
</g>
<g>
	<g>
		<g>
			<defs>
				<rect id="SVGID_37_" x="73.6" y="89.8" width="507.9" height="208.7"/>
			</defs>
			<clipPath id="SVGID_38_">
				<use xlink:href="#SVGID_37_"  style="overflow:visible;"/>
			</clipPath>
			<path class="st21" d="M274.1,288.5c0,1.7-1.3,3-3,3s-3-1.3-3-3s1.3-3,3-3C272.7,285.5,274.1,286.9,274.1,288.5z"/>
		</g>
	</g>
</g>
<g>
	<g>
		<g>
			<defs>
				<rect id="SVGID_39_" x="73.6" y="89.8" width="507.9" height="208.7"/>
			</defs>
			<clipPath id="SVGID_40_">
				<use xlink:href="#SVGID_39_"  style="overflow:visible;"/>
			</clipPath>
			<path class="st22" d="M288.2,288c0,1.7-1.3,3-3,3s-3-1.3-3-3s1.3-3,3-3C286.8,285,288.2,286.3,288.2,288z"/>
		</g>
	</g>
</g>
<g>
	<g>
		<g>
			<defs>
				<rect id="SVGID_41_" x="73.6" y="89.8" width="507.9" height="208.7"/>
			</defs>
			<clipPath id="SVGID_42_">
				<use xlink:href="#SVGID_41_"  style="overflow:visible;"/>
			</clipPath>
			<path class="st23" d="M302.3,287.4c0,1.7-1.3,3-3,3s-3-1.3-3-3s1.3-3,3-3S302.3,285.8,302.3,287.4z"/>
		</g>
	</g>
</g>
<g>
	<g>
		<g>
			<defs>
				<rect id="SVGID_43_" x="73.6" y="89.8" width="507.9" height="208.7"/>
			</defs>
			<clipPath id="SVGID_44_">
				<use xlink:href="#SVGID_43_"  style="overflow:visible;"/>
			</clipPath>
			<path class="st24" d="M316.4,286.7c0,1.7-1.3,3-3,3s-3-1.3-3-3s1.3-3,3-3S316.4,285,316.4,286.7z"/>
		</g>
	</g>
</g>
<g>
	<g>
		<g>
			<defs>
				<rect id="SVGID_45_" x="73.6" y="89.8" width="507.9" height="208.7"/>
			</defs>
			<clipPath id="SVGID_46_">
				<use xlink:href="#SVGID_45_"  style="overflow:visible;"/>
			</clipPath>
			<path class="st25" d="M330.5,285.6c0,1.7-1.3,3-3,3s-3-1.3-3-3s1.3-3,3-3S330.5,284,330.5,285.6z"/>
		</g>
	</g>
</g>
<g>
	<g>
		<g>
			<defs>
				<rect id="SVGID_47_" x="73.6" y="89.8" width="507.9" height="208.7"/>
			</defs>
			<clipPath id="SVGID_48_">
				<use xlink:href="#SVGID_47_"  style="overflow:visible;"/>
			</clipPath>
			<path class="st26" d="M344.6,284.3c0,1.7-1.3,3-3,3s-3-1.3-3-3s1.3-3,3-3S344.6,282.7,344.6,284.3z"/>
		</g>
	</g>
</g>
<g>
	<g>
		<g>
			<defs>
				<rect id="SVGID_49_" x="73.6" y="89.8" width="507.9" height="208.7"/>
			</defs>
			<clipPath id="SVGID_50_">
				<use xlink:href="#SVGID_49_"  style="overflow:visible;"/>
			</clipPath>
			<path class="st27" d="M358.7,283.3c0,1.7-1.3,3-3,3s-3-1.3-3-3s1.3-3,3-3S358.7,281.6,358.7,283.3z"/>
		</g>
	</g>
</g>
<g>
	<g>
		<g>
			<defs>
				<rect id="SVGID_51_" x="73.6" y="89.8" width="507.9" height="208.7"/>
			</defs>
			<clipPath id="SVGID_52_">
				<use xlink:href="#SVGID_51_"  style="overflow:visible;"/>
			</clipPath>
			<path class="st28" d="M372.8,282.1c0,1.7-1.3,3-3,3s-3-1.3-3-3s1.3-3,3-3S372.8,280.4,372.8,282.1z"/>
		</g>
	</g>
</g>
<g>
	<g>
		<g>
			<defs>
				<rect id="SVGID_53_" x="73.6" y="89.8" width="507.9" height="208.7"/>
			</defs>
			<clipPath id="SVGID_54_">
				<use xlink:href="#SVGID_53_"  style="overflow:visible;"/>
			</clipPath>
			<path class="st29" d="M386.9,281.4c0,1.7-1.3,3-3,3s-3-1.3-3-3s1.3-3,3-3S386.9,279.7,386.9,281.4z"/>
		</g>
	</g>
</g>
<g>
	<g>
		<g>
			<defs>
				<rect id="SVGID_55_" x="73.6" y="89.8" width="507.9" height="208.7"/>
			</defs>
			<clipPath id="SVGID_56_">
				<use xlink:href="#SVGID_55_"  style="overflow:visible;"/>
			</clipPath>
			<path class="st30" d="M401,280.4c0,1.7-1.3,3-3,3s-3-1.3-3-3s1.3-3,3-3S401,278.7,401,280.4z"/>
		</g>
	</g>
</g>
<g>
	<g>
		<g>
			<defs>
				<rect id="SVGID_57_" x="73.6" y="89.8" width="507.9" height="208.7"/>
			</defs>
			<clipPath id="SVGID_58_">
				<use xlink:href="#SVGID_57_"  style="overflow:visible;"/>
			</clipPath>
			<path class="st31" d="M415.1,279.6c0,1.7-1.3,3-3,3s-3-1.3-3-3s1.3-3,3-3S415.1,278,415.1,279.6z"/>
		</g>
	</g>
</g>
<g>
	<g>
		<g>
			<defs>
				<rect id="SVGID_59_" x="73.6" y="89.8" width="507.9" height="208.7"/>
			</defs>
			<clipPath id="SVGID_60_">
				<use xlink:href="#SVGID_59_"  style="overflow:visible;"/>
			</clipPath>
			<path class="st32" d="M429.3,278.9c0,1.7-1.3,3-3,3s-3-1.3-3-3s1.3-3,3-3S429.3,277.2,429.3,278.9z"/>
		</g>
	</g>
</g>
<g>
	<g>
		<g>
			<defs>
				<rect id="SVGID_61_" x="73.6" y="89.8" width="507.9" height="208.7"/>
			</defs>
			<clipPath id="SVGID_62_">
				<use xlink:href="#SVGID_61_"  style="overflow:visible;"/>
			</clipPath>
			<path class="st33" d="M443.4,278.3c0,1.7-1.3,3-3,3s-3-1.3-3-3s1.3-3,3-3S443.4,276.7,443.4,278.3z"/>
		</g>
	</g>
</g>
<g>
	<g>
		<g>
			<defs>
				<rect id="SVGID_63_" x="73.6" y="89.8" width="507.9" height="208.7"/>
			</defs>
			<clipPath id="SVGID_64_">
				<use xlink:href="#SVGID_63_"  style="overflow:visible;"/>
			</clipPath>
			<path class="st34" d="M457.5,277.6c0,1.7-1.3,3-3,3s-3-1.3-3-3s1.3-3,3-3S457.5,276,457.5,277.6z"/>
		</g>
	</g>
</g>
<g>
	<g>
		<g>
			<defs>
				<rect id="SVGID_65_" x="73.6" y="89.8" width="507.9" height="208.7"/>
			</defs>
			<clipPath id="SVGID_66_">
				<use xlink:href="#SVGID_65_"  style="overflow:visible;"/>
			</clipPath>
			<path class="st35" d="M471.6,277.4c0,1.7-1.3,3-3,3s-3-1.3-3-3s1.3-3,3-3C470.2,274.4,471.6,275.8,471.6,277.4z"/>
		</g>
	</g>
</g>
<g>
	<g>
		<g>
			<defs>
				<rect id="SVGID_67_" x="73.6" y="89.8" width="507.9" height="208.7"/>
			</defs>
			<clipPath id="SVGID_68_">
				<use xlink:href="#SVGID_67_"  style="overflow:visible;"/>
			</clipPath>
			<path class="st36" d="M485.7,276.7c0,1.7-1.3,3-3,3s-3-1.3-3-3s1.3-3,3-3C484.3,273.7,485.7,275.1,485.7,276.7z"/>
		</g>
	</g>
</g>
<g>
	<g>
		<g>
			<defs>
				<rect id="SVGID_69_" x="73.6" y="89.8" width="507.9" height="208.7"/>
			</defs>
			<clipPath id="SVGID_70_">
				<use xlink:href="#SVGID_69_"  style="overflow:visible;"/>
			</clipPath>
			<path class="st37" d="M499.8,276.6c0,1.7-1.3,3-3,3s-3-1.3-3-3s1.3-3,3-3S499.8,274.9,499.8,276.6z"/>
		</g>
	</g>
</g>
<g>
	<g>
		<g>
			<defs>
				<rect id="SVGID_71_" x="73.6" y="89.8" width="507.9" height="208.7"/>
			</defs>
			<clipPath id="SVGID_72_">
				<use xlink:href="#SVGID_71_"  style="overflow:visible;"/>
			</clipPath>
			<path class="st38" d="M513.9,275.9c0,1.7-1.3,3-3,3s-3-1.3-3-3s1.3-3,3-3S513.9,274.2,513.9,275.9z"/>
		</g>
	</g>
</g>
<g>
	<g>
		<g>
			<defs>
				<rect id="SVGID_73_" x="73.6" y="89.8" width="507.9" height="208.7"/>
			</defs>
			<clipPath id="SVGID_74_">
				<use xlink:href="#SVGID_73_"  style="overflow:visible;"/>
			</clipPath>
			<path class="st39" d="M528,275.7c0,1.7-1.3,3-3,3s-3-1.3-3-3s1.3-3,3-3S528,274.1,528,275.7z"/>
		</g>
	</g>
</g>
<g>
	<g>
		<g>
			<defs>
				<rect id="SVGID_75_" x="73.6" y="89.8" width="507.9" height="208.7"/>
			</defs>
			<clipPath id="SVGID_76_">
				<use xlink:href="#SVGID_75_"  style="overflow:visible;"/>
			</clipPath>
			<path class="st40" d="M542.1,275.9c0,1.7-1.3,3-3,3s-3-1.3-3-3s1.3-3,3-3S542.1,274.3,542.1,275.9z"/>
		</g>
	</g>
</g>
<g>
	<g>
		<g>
			<defs>
				<rect id="SVGID_77_" x="73.6" y="89.8" width="507.9" height="208.7"/>
			</defs>
			<clipPath id="SVGID_78_">
				<use xlink:href="#SVGID_77_"  style="overflow:visible;"/>
			</clipPath>
			<path class="st41" d="M556.2,276.5c0,1.7-1.3,3-3,3s-3-1.3-3-3s1.3-3,3-3S556.2,274.8,556.2,276.5z"/>
		</g>
	</g>
</g>
<g>
	<g>
		<g>
			<defs>
				<rect id="SVGID_79_" x="73.6" y="89.8" width="507.9" height="208.7"/>
			</defs>
			<clipPath id="SVGID_80_">
				<use xlink:href="#SVGID_79_"  style="overflow:visible;"/>
			</clipPath>
			<path class="st42" d="M570.3,277.9c0,1.7-1.3,3-3,3s-3-1.3-3-3s1.3-3,3-3S570.3,276.3,570.3,277.9z"/>
		</g>
	</g>
</g>
<g>
	<g>
		<g>
			<defs>
				<rect id="SVGID_81_" x="73.6" y="89.8" width="507.9" height="208.7"/>
			</defs>
			<clipPath id="SVGID_82_">
				<use xlink:href="#SVGID_81_"  style="overflow:visible;"/>
			</clipPath>
			<path class="st43" d="M584.5,278.7c0,1.7-1.3,3-3,3s-3-1.3-3-3s1.3-3,3-3S584.5,277.1,584.5,278.7z"/>
		</g>
	</g>
</g>
<g>
	<g>
		<g>
			<defs>
				<rect id="SVGID_83_" x="73.6" y="89.8" width="507.9" height="208.7"/>
			</defs>
			<clipPath id="SVGID_84_">
				<use xlink:href="#SVGID_83_"  style="overflow:visible;"/>
			</clipPath>
			<path class="st44" d="M76.6,264c0,1.7-1.3,3-3,3s-3-1.3-3-3s1.3-3,3-3C75.2,261,76.6,262.4,76.6,264z"/>
		</g>
	</g>
</g>
<g>
	<g>
		<g>
			<defs>
				<rect id="SVGID_85_" x="73.6" y="89.8" width="507.9" height="208.7"/>
			</defs>
			<clipPath id="SVGID_86_">
				<use xlink:href="#SVGID_85_"  style="overflow:visible;"/>
			</clipPath>
			<path class="st45" d="M90.7,259.9c0,1.7-1.3,3-3,3s-3-1.3-3-3s1.3-3,3-3S90.7,258.2,90.7,259.9z"/>
		</g>
	</g>
</g>
<g>
	<g>
		<g>
			<defs>
				<rect id="SVGID_87_" x="73.6" y="89.8" width="507.9" height="208.7"/>
			</defs>
			<clipPath id="SVGID_88_">
				<use xlink:href="#SVGID_87_"  style="overflow:visible;"/>
			</clipPath>
			<path class="st46" d="M104.8,255.3c0,1.7-1.3,3-3,3s-3-1.3-3-3c0-1.7,1.3-3,3-3C103.4,252.3,104.8,253.6,104.8,255.3z"/>
		</g>
	</g>
</g>
<g>
	<g>
		<g>
			<defs>
				<rect id="SVGID_89_" x="73.6" y="89.8" width="507.9" height="208.7"/>
			</defs>
			<clipPath id="SVGID_90_">
				<use xlink:href="#SVGID_89_"  style="overflow:visible;"/>
			</clipPath>
			<path class="st47" d="M118.9,252.9c0,1.7-1.3,3-3,3s-3-1.3-3-3s1.3-3,3-3S118.9,251.2,118.9,252.9z"/>
		</g>
	</g>
</g>
<g>
	<g>
		<g>
			<defs>
				<rect id="SVGID_91_" x="73.6" y="89.8" width="507.9" height="208.7"/>
			</defs>
			<clipPath id="SVGID_92_">
				<use xlink:href="#SVGID_91_"  style="overflow:visible;"/>
			</clipPath>
			<path class="st48" d="M133,250.2c0,1.7-1.3,3-3,3s-3-1.3-3-3s1.3-3,3-3C131.6,247.2,133,248.6,133,250.2z"/>
		</g>
	</g>
</g>
<g>
	<g>
		<g>
			<defs>
				<rect id="SVGID_93_" x="73.6" y="89.8" width="507.9" height="208.7"/>
			</defs>
			<clipPath id="SVGID_94_">
				<use xlink:href="#SVGID_93_"  style="overflow:visible;"/>
			</clipPath>
			<path class="st49" d="M147.1,246c0,1.7-1.3,3-3,3s-3-1.3-3-3s1.3-3,3-3C145.7,243,147.1,244.4,147.1,246z"/>
		</g>
	</g>
</g>
<g>
	<g>
		<g>
			<defs>
				<rect id="SVGID_95_" x="73.6" y="89.8" width="507.9" height="208.7"/>
			</defs>
			<clipPath id="SVGID_96_">
				<use xlink:href="#SVGID_95_"  style="overflow:visible;"/>
			</clipPath>
			<path class="st50" d="M161.2,241.6c0,1.7-1.3,3-3,3s-3-1.3-3-3s1.3-3,3-3S161.2,239.9,161.2,241.6z"/>
		</g>
	</g>
</g>
<g>
	<g>
		<g>
			<defs>
				<rect id="SVGID_97_" x="73.6" y="89.8" width="507.9" height="208.7"/>
			</defs>
			<clipPath id="SVGID_98_">
				<use xlink:href="#SVGID_97_"  style="overflow:visible;"/>
			</clipPath>
			<path class="st51" d="M175.3,237.4c0,1.7-1.3,3-3,3s-3-1.3-3-3s1.3-3,3-3S175.3,235.7,175.3,237.4z"/>
		</g>
	</g>
</g>
<g>
	<g>
		<g>
			<defs>
				<rect id="SVGID_99_" x="73.6" y="89.8" width="507.9" height="208.7"/>
			</defs>
			<clipPath id="SVGID_100_">
				<use xlink:href="#SVGID_99_"  style="overflow:visible;"/>
			</clipPath>
			<path class="st52" d="M189.4,233c0,1.7-1.3,3-3,3s-3-1.3-3-3s1.3-3,3-3C188.1,230,189.4,231.3,189.4,233z"/>
		</g>
	</g>
</g>
<g>
	<g>
		<g>
			<defs>
				<rect id="SVGID_101_" x="73.6" y="89.8" width="507.9" height="208.7"/>
			</defs>
			<clipPath id="SVGID_102_">
				<use xlink:href="#SVGID_101_"  style="overflow:visible;"/>
			</clipPath>
			<path class="st53" d="M203.5,224.1c0,1.7-1.3,3-3,3s-3-1.3-3-3s1.3-3,3-3S203.5,222.5,203.5,224.1z"/>
		</g>
	</g>
</g>
<g>
	<g>
		<g>
			<defs>
				<rect id="SVGID_103_" x="73.6" y="89.8" width="507.9" height="208.7"/>
			</defs>
			<clipPath id="SVGID_104_">
				<use xlink:href="#SVGID_103_"  style="overflow:visible;"/>
			</clipPath>
			<path class="st54" d="M217.6,217.7c0,1.7-1.3,3-3,3s-3-1.3-3-3s1.3-3,3-3S217.6,216,217.6,217.7z"/>
		</g>
	</g>
</g>
<g>
	<g>
		<g>
			<defs>
				<rect id="SVGID_105_" x="73.6" y="89.8" width="507.9" height="208.7"/>
			</defs>
			<clipPath id="SVGID_106_">
				<use xlink:href="#SVGID_105_"  style="overflow:visible;"/>
			</clipPath>
			<path class="st55" d="M231.7,212.3c0,1.7-1.3,3-3,3s-3-1.3-3-3s1.3-3,3-3S231.7,210.7,231.7,212.3z"/>
		</g>
	</g>
</g>
<g>
	<g>
		<g>
			<defs>
				<rect id="SVGID_107_" x="73.6" y="89.8" width="507.9" height="208.7"/>
			</defs>
			<clipPath id="SVGID_108_">
				<use xlink:href="#SVGID_107_"  style="overflow:visible;"/>
			</clipPath>
			<path class="st56" d="M245.9,206.4c0,1.7-1.3,3-3,3s-3-1.3-3-3s1.3-3,3-3C244.5,203.4,245.9,204.7,245.9,206.4z"/>
		</g>
	</g>
</g>
<g>
	<g>
		<g>
			<defs>
				<rect id="SVGID_109_" x="73.6" y="89.8" width="507.9" height="208.7"/>
			</defs>
			<clipPath id="SVGID_110_">
				<use xlink:href="#SVGID_109_"  style="overflow:visible;"/>
			</clipPath>
			<path class="st57" d="M260,197.3c0,1.7-1.3,3-3,3c-1.7,0-3-1.3-3-3s1.3-3,3-3C258.6,194.3,260,195.7,260,197.3z"/>
		</g>
	</g>
</g>
<g>
	<g>
		<g>
			<defs>
				<rect id="SVGID_111_" x="73.6" y="89.8" width="507.9" height="208.7"/>
			</defs>
			<clipPath id="SVGID_112_">
				<use xlink:href="#SVGID_111_"  style="overflow:visible;"/>
			</clipPath>
			<path class="st58" d="M274.1,188.4c0,1.7-1.3,3-3,3s-3-1.3-3-3s1.3-3,3-3C272.7,185.4,274.1,186.8,274.1,188.4z"/>
		</g>
	</g>
</g>
<g>
	<g>
		<g>
			<defs>
				<rect id="SVGID_113_" x="73.6" y="89.8" width="507.9" height="208.7"/>
			</defs>
			<clipPath id="SVGID_114_">
				<use xlink:href="#SVGID_113_"  style="overflow:visible;"/>
			</clipPath>
			<path class="st59" d="M288.2,181c0,1.7-1.3,3-3,3s-3-1.3-3-3s1.3-3,3-3C286.8,178,288.2,179.3,288.2,181z"/>
		</g>
	</g>
</g>
<g>
	<g>
		<g>
			<defs>
				<rect id="SVGID_115_" x="73.6" y="89.8" width="507.9" height="208.7"/>
			</defs>
			<clipPath id="SVGID_116_">
				<use xlink:href="#SVGID_115_"  style="overflow:visible;"/>
			</clipPath>
			<path class="st60" d="M302.3,175.1c0,1.7-1.3,3-3,3s-3-1.3-3-3s1.3-3,3-3S302.3,173.5,302.3,175.1z"/>
		</g>
	</g>
</g>
<g>
	<g>
		<g>
			<defs>
				<rect id="SVGID_117_" x="73.6" y="89.8" width="507.9" height="208.7"/>
			</defs>
			<clipPath id="SVGID_118_">
				<use xlink:href="#SVGID_117_"  style="overflow:visible;"/>
			</clipPath>
			<path class="st61" d="M316.4,169c0,1.7-1.3,3-3,3s-3-1.3-3-3s1.3-3,3-3S316.4,167.3,316.4,169z"/>
		</g>
	</g>
</g>
<g>
	<g>
		<g>
			<defs>
				<rect id="SVGID_119_" x="73.6" y="89.8" width="507.9" height="208.7"/>
			</defs>
			<clipPath id="SVGID_120_">
				<use xlink:href="#SVGID_119_"  style="overflow:visible;"/>
			</clipPath>
			<path class="st62" d="M330.5,162.1c0,1.7-1.3,3-3,3s-3-1.3-3-3s1.3-3,3-3S330.5,160.4,330.5,162.1z"/>
		</g>
	</g>
</g>
<g class="st63">
	<g class="st64">
		<g>
			<defs>
				<rect id="SVGID_121_" x="73.6" y="89.8" width="507.9" height="208.7"/>
			</defs>
			<clipPath id="SVGID_122_">
				<use xlink:href="#SVGID_121_"  style="overflow:visible;"/>
			</clipPath>
			<path class="st65" d="M344.6,156.2c0,1.7-1.3,3-3,3s-3-1.3-3-3s1.3-3,3-3S344.6,154.5,344.6,156.2z"/>
		</g>
	</g>
</g>
<g>
	<g>
		<g>
			<defs>
				<rect id="SVGID_123_" x="73.6" y="89.8" width="507.9" height="208.7"/>
			</defs>
			<clipPath id="SVGID_124_">
				<use xlink:href="#SVGID_123_"  style="overflow:visible;"/>
			</clipPath>
			<path class="st66" d="M358.7,153c0,1.7-1.3,3-3,3s-3-1.3-3-3s1.3-3,3-3S358.7,151.3,358.7,153z"/>
		</g>
	</g>
</g>
<g>
	<g>
		<g>
			<defs>
				<rect id="SVGID_125_" x="73.6" y="89.8" width="507.9" height="208.7"/>
			</defs>
			<clipPath id="SVGID_126_">
				<use xlink:href="#SVGID_125_"  style="overflow:visible;"/>
			</clipPath>
			<path class="st67" d="M372.8,152c0,1.7-1.3,3-3,3s-3-1.3-3-3s1.3-3,3-3S372.8,150.3,372.8,152z"/>
		</g>
	</g>
</g>
<g>
	<g>
		<g>
			<defs>
				<rect id="SVGID_127_" x="73.6" y="89.8" width="507.9" height="208.7"/>
			</defs>
			<clipPath id="SVGID_128_">
				<use xlink:href="#SVGID_127_"  style="overflow:visible;"/>
			</clipPath>
			<path class="st68" d="M386.9,148.2c0,1.7-1.3,3-3,3s-3-1.3-3-3s1.3-3,3-3S386.9,146.5,386.9,148.2z"/>
		</g>
	</g>
</g>
<g>
	<g>
		<g>
			<defs>
				<rect id="SVGID_129_" x="73.6" y="89.8" width="507.9" height="208.7"/>
			</defs>
			<clipPath id="SVGID_130_">
				<use xlink:href="#SVGID_129_"  style="overflow:visible;"/>
			</clipPath>
			<path class="st69" d="M401,145.2c0,1.7-1.3,3-3,3s-3-1.3-3-3s1.3-3,3-3S401,143.6,401,145.2z"/>
		</g>
	</g>
</g>
<g>
	<g>
		<g>
			<defs>
				<rect id="SVGID_131_" x="73.6" y="89.8" width="507.9" height="208.7"/>
			</defs>
			<clipPath id="SVGID_132_">
				<use xlink:href="#SVGID_131_"  style="overflow:visible;"/>
			</clipPath>
			<path class="st70" d="M415.1,142.3c0,1.7-1.3,3-3,3s-3-1.3-3-3s1.3-3,3-3S415.1,140.6,415.1,142.3z"/>
		</g>
	</g>
</g>
<g>
	<g>
		<g>
			<defs>
				<rect id="SVGID_133_" x="73.6" y="89.8" width="507.9" height="208.7"/>
			</defs>
			<clipPath id="SVGID_134_">
				<use xlink:href="#SVGID_133_"  style="overflow:visible;"/>
			</clipPath>
			<path class="st71" d="M429.3,139.2c0,1.7-1.3,3-3,3s-3-1.3-3-3s1.3-3,3-3S429.3,137.6,429.3,139.2z"/>
		</g>
	</g>
</g>
<g>
	<g>
		<g>
			<defs>
				<rect id="SVGID_135_" x="73.6" y="89.8" width="507.9" height="208.7"/>
			</defs>
			<clipPath id="SVGID_136_">
				<use xlink:href="#SVGID_135_"  style="overflow:visible;"/>
			</clipPath>
			<path class="st72" d="M443.4,134.8c0,1.7-1.3,3-3,3s-3-1.3-3-3s1.3-3,3-3S443.4,133.1,443.4,134.8z"/>
		</g>
	</g>
</g>
<g>
	<g>
		<g>
			<defs>
				<rect id="SVGID_137_" x="73.6" y="89.8" width="507.9" height="208.7"/>
			</defs>
			<clipPath id="SVGID_138_">
				<use xlink:href="#SVGID_137_"  style="overflow:visible;"/>
			</clipPath>
			<path class="st73" d="M457.5,131.9c0,1.7-1.3,3-3,3s-3-1.3-3-3s1.3-3,3-3S457.5,130.2,457.5,131.9z"/>
		</g>
	</g>
</g>
<g>
	<g>
		<g>
			<defs>
				<rect id="SVGID_139_" x="73.6" y="89.8" width="507.9" height="208.7"/>
			</defs>
			<clipPath id="SVGID_140_">
				<use xlink:href="#SVGID_139_"  style="overflow:visible;"/>
			</clipPath>
			<path class="st74" d="M471.6,130.7c0,1.7-1.3,3-3,3s-3-1.3-3-3s1.3-3,3-3C470.2,127.7,471.6,129,471.6,130.7z"/>
		</g>
	</g>
</g>
<g>
	<g>
		<g>
			<defs>
				<rect id="SVGID_141_" x="73.6" y="89.8" width="507.9" height="208.7"/>
			</defs>
			<clipPath id="SVGID_142_">
				<use xlink:href="#SVGID_141_"  style="overflow:visible;"/>
			</clipPath>
			<path class="st75" d="M485.7,129.9c0,1.7-1.3,3-3,3s-3-1.3-3-3s1.3-3,3-3C484.3,126.9,485.7,128.2,485.7,129.9z"/>
		</g>
	</g>
</g>
<g>
	<g>
		<g>
			<defs>
				<rect id="SVGID_143_" x="73.6" y="89.8" width="507.9" height="208.7"/>
			</defs>
			<clipPath id="SVGID_144_">
				<use xlink:href="#SVGID_143_"  style="overflow:visible;"/>
			</clipPath>
			<path class="st76" d="M499.8,130.1c0,1.7-1.3,3-3,3s-3-1.3-3-3s1.3-3,3-3C498.5,127.1,499.8,128.4,499.8,130.1z"/>
		</g>
	</g>
</g>
<g>
	<g>
		<g>
			<defs>
				<rect id="SVGID_145_" x="73.6" y="89.8" width="507.9" height="208.7"/>
			</defs>
			<clipPath id="SVGID_146_">
				<use xlink:href="#SVGID_145_"  style="overflow:visible;"/>
			</clipPath>
			<path class="st77" d="M513.9,131.6c0,1.7-1.3,3-3,3s-3-1.3-3-3s1.3-3,3-3S513.9,130,513.9,131.6z"/>
		</g>
	</g>
</g>
<g>
	<g>
		<g>
			<defs>
				<rect id="SVGID_147_" x="73.6" y="89.8" width="507.9" height="208.7"/>
			</defs>
			<clipPath id="SVGID_148_">
				<use xlink:href="#SVGID_147_"  style="overflow:visible;"/>
			</clipPath>
			<path class="st78" d="M528,134.6c0,1.7-1.3,3-3,3s-3-1.3-3-3s1.3-3,3-3S528,132.9,528,134.6z"/>
		</g>
	</g>
</g>
<g>
	<g>
		<g>
			<defs>
				<rect id="SVGID_149_" x="73.6" y="89.8" width="507.9" height="208.7"/>
			</defs>
			<clipPath id="SVGID_150_">
				<use xlink:href="#SVGID_149_"  style="overflow:visible;"/>
			</clipPath>
			<path class="st79" d="M542.1,133.9c0,1.7-1.3,3-3,3s-3-1.3-3-3s1.3-3,3-3S542.1,132.3,542.1,133.9z"/>
		</g>
	</g>
</g>
<g class="st63">
	<g class="st64">
		<g>
			<defs>
				<rect id="SVGID_151_" x="73.6" y="89.8" width="507.9" height="208.7"/>
			</defs>
			<clipPath id="SVGID_152_">
				<use xlink:href="#SVGID_151_"  style="overflow:visible;"/>
			</clipPath>
			<path class="st80" d="M556.2,135.4c0,1.7-1.3,3-3,3s-3-1.3-3-3s1.3-3,3-3S556.2,133.8,556.2,135.4z"/>
		</g>
	</g>
</g>
<g>
	<g>
		<g>
			<defs>
				<polyline id="SVGID_153_" points="73.6,89.8 581.5,89.8 581.5,298.5 73.6,298.5 				"/>
			</defs>
			<clipPath id="SVGID_154_">
				<use xlink:href="#SVGID_153_"  style="overflow:visible;"/>
			</clipPath>
			<path class="st81" d="M570.3,139.2c0,1.7-1.3,3-3,3s-3-1.3-3-3s1.3-3,3-3S570.3,137.5,570.3,139.2z"/>
		</g>
	</g>
</g>
<g>
	<g>
		<g>
			<defs>
				<polyline id="SVGID_155_" points="73.6,89.8 581.5,89.8 581.5,298.5 73.6,298.5 				"/>
			</defs>
			<clipPath id="SVGID_156_">
				<use xlink:href="#SVGID_155_"  style="overflow:visible;"/>
			</clipPath>
			<path class="st82" d="M584.5,141.4c0,1.7-1.3,3-3,3s-3-1.3-3-3s1.3-3,3-3S584.5,139.7,584.5,141.4z"/>
		</g>
	</g>
</g>
<path class="st83" d="M92.6,89.2c0-0.6,0.4-1,1-1h10c0.6,0,1,0.4,1,1v10c0,0.6-0.4,1-1,1h-10c-0.6,0-1-0.4-1-1V89.2z"/>
<path class="st84" d="M92.6,109.2c0-0.6,0.4-1,1-1h10c0.6,0,1,0.4,1,1v10c0,0.6-0.4,1-1,1h-10c-0.6,0-1-0.4-1-1V109.2z"/>
<text transform="matrix(1 0 0 1 221.6988 54.7656)" class="st85 st86 st87">Prison Population in the U.S.</text>
<text transform="matrix(1 0 0 1 47.804 94.153)" class="st85 st88 st89">2.0M</text>
<text transform="matrix(1 0 0 1 48.8258 146.7)" class="st85 st88 st89">1.5M</text>
<text transform="matrix(1 0 0 1 48.826 198)" class="st85 st88 st89">1.0M</text>
<text transform="matrix(1 0 0 1 46.508 251.1006)" class="st85 st88 st89">500K</text>
<text transform="matrix(1 0 0 1 60.6472 302.65)" class="st85 st88 st89">0</text>
<text transform="matrix(1 0 0 1 64.8986 314.8622)" class="st85 st88 st89">1980</text>
<text transform="matrix(1 0 0 1 205.8772 313.8329)" class="st85 st88 st89">1990</text>
<text transform="matrix(1 0 0 1 346.7325 314.6534)" class="st85 st88 st89">2000</text>
<text transform="matrix(1 0 0 1 488.4008 313.9803)" class="st85 st88 st89">2010</text>
<text transform="matrix(1 0 0 1 108.0801 100.1531)" class="st85 st86 st89">State</text>
<text transform="matrix(1 0 0 1 108.0802 120.2136)" class="st85 st86 st89">Federal</text>
<g>
	<g>
		<path class="st90" d="M257.3,167.5c2.4,9.4,9.3,16.1,17.2,15.8"/>
		<g>
			<polygon class="st85" points="254.2,170.9 257.6,168.7 261.5,169.7 256.4,161.6 			"/>
		</g>
	</g>
</g>
<text transform="matrix(1 0 0 1 214.1452 143.7863)"><tspan x="0" y="0" class="st91 st92 st89">The War on Drugs led to a </tspan><tspan x="0" y="10.8" class="st91 st92 st89">sharp increase in prison </tspan><tspan x="0" y="21.6" class="st91 st92 st89">population</tspan></text>
</svg>
