<?xml version="1.0" encoding="utf-8"?>
<!-- Generator: Adobe Illustrator 23.0.3, SVG Export Plug-In . SVG Version: 6.00 Build 0)  -->
<svg version="1.1" id="Layer_1" xmlns="http://www.w3.org/2000/svg" xmlns:xlink="http://www.w3.org/1999/xlink" x="0px" y="0px"
	 viewBox="0 0 1019 639" style="enable-background:new 0 0 1019 639;" xml:space="preserve">
<style type="text/css">
	.st0{fill:none;stroke:#37636B;stroke-miterlimit:10;}
	.st1{fill:#91968D;stroke:#37636B;stroke-miterlimit:10;}
	.st2{fill:#757575;}
	.st3{font-family:'Oswald-Regular';}
	.st4{font-size:25px;}
	.st5{fill:#E8D1C1;}
	.st6{fill:#91968D;}
	.st7{font-size:25.0796px;}
	.st8{font-family:'Oswald-Medium';}
	.st9{font-size:40px;}
	.st10{fill:#AE9D91;}
	.st11{font-family:'Oswald-Light';}
	.st12{font-size:20px;}
	.st13{font-size:18px;}
	.st14{fill:none;stroke:#000000;stroke-width:2;stroke-miterlimit:10;}
</style>
<g>
	<g>
		<line class="st0" x1="96.02" y1="522.53" x2="764.81" y2="522.53"/>
		<g>
			<g>
				<line class="st0" x1="96.02" y1="522.53" x2="96.02" y2="513.13"/>
				<line class="st0" x1="162.9" y1="522.53" x2="162.9" y2="513.13"/>
				<line class="st0" x1="229.78" y1="522.53" x2="229.78" y2="513.13"/>
				<line class="st0" x1="296.66" y1="522.53" x2="296.66" y2="513.13"/>
				<line class="st0" x1="363.54" y1="522.53" x2="363.54" y2="513.13"/>
				<line class="st1" x1="430.42" y1="522.53" x2="430.42" y2="513.13"/>
				<line class="st0" x1="497.3" y1="522.53" x2="497.3" y2="513.13"/>
				<line class="st0" x1="564.18" y1="522.53" x2="564.18" y2="513.13"/>
				<line class="st0" x1="631.05" y1="522.53" x2="631.05" y2="513.13"/>
				<line class="st0" x1="697.93" y1="522.53" x2="697.93" y2="513.13"/>
				<line class="st0" x1="764.81" y1="522.53" x2="764.81" y2="513.13"/>
			</g>
			<g>
			</g>
		</g>
	</g>
	<g>
		<g>
			<text transform="matrix(1 0 0 1 72.6484 534.29)" class="st2 st3 st4">0</text>
			<text transform="matrix(1 0 0 1 35.3984 459.0527)" class="st2 st3 st4">200K</text>
			<text transform="matrix(1 0 0 1 35.2739 383.8154)" class="st2 st3 st4">400K</text>
			<text transform="matrix(1 0 0 1 34.7734 308.5781)" class="st2 st3 st4">600K</text>
			<text transform="matrix(1 0 0 1 34.8735 233.3408)" class="st2 st3 st4">800K</text>
			<text transform="matrix(1 0 0 1 59.1738 158.104)" class="st2 st3 st4">1M</text>
		</g>
		<line class="st0" x1="96.02" y1="522.53" x2="96.02" y2="146.35"/>
		<g>
			<g>
				<line class="st0" x1="96.02" y1="522.53" x2="112.74" y2="522.53"/>
				<line class="st0" x1="96.02" y1="447.3" x2="112.74" y2="447.3"/>
				<line class="st0" x1="96.02" y1="372.06" x2="112.74" y2="372.06"/>
				<line class="st0" x1="96.02" y1="296.82" x2="112.74" y2="296.82"/>
				<line class="st0" x1="96.02" y1="221.58" x2="112.74" y2="221.58"/>
				<line class="st0" x1="96.02" y1="146.35" x2="112.74" y2="146.35"/>
			</g>
			<g>
			</g>
		</g>
	</g>
	<g>
		<g>
			<rect x="839.91" y="155.75" class="st5" width="30.1" height="30.09"/>
			<g>
				<rect x="105.39" y="200.11" class="st5" width="48.15" height="271.29"/>
				<rect x="172.26" y="194.36" class="st5" width="48.15" height="276.67"/>
				<rect x="239.14" y="199.7" class="st5" width="48.15" height="274.35"/>
				<rect x="306.02" y="210.08" class="st5" width="48.15" height="266.59"/>
				<rect x="372.9" y="221.38" class="st5" width="48.15" height="259.97"/>
				<rect x="439.78" y="264.9" class="st5" width="48.15" height="239.79"/>
				<rect x="506.66" y="274.12" class="st5" width="48.15" height="234.74"/>
				<rect x="573.54" y="268.64" class="st5" width="48.15" height="239.38"/>
				<rect x="640.42" y="265.87" class="st5" width="48.15" height="241.15"/>
				<rect x="707.3" y="274.04" class="st5" width="48.15" height="235.5"/>
			</g>
		</g>
		<g>
			<rect x="839.91" y="200.89" class="st6" width="30.1" height="30.09"/>
			<g>
				<rect x="105.39" y="471.4" class="st6" width="48.15" height="51.13"/>
				<rect x="172.26" y="471.02" class="st6" width="48.15" height="51.51"/>
				<rect x="239.14" y="474.06" class="st6" width="48.15" height="48.48"/>
				<rect x="306.02" y="476.67" class="st6" width="48.15" height="45.86"/>
				<rect x="372.9" y="481.35" class="st6" width="48.15" height="41.18"/>
				<rect x="439.78" y="504.68" class="st6" width="48.15" height="17.85"/>
				<rect x="506.66" y="508.86" class="st6" width="48.15" height="13.68"/>
				<rect x="573.54" y="508.03" class="st6" width="48.15" height="14.51"/>
				<rect x="640.42" y="507.01" class="st6" width="48.15" height="15.52"/>
				<rect x="707.3" y="509.55" class="st6" width="48.15" height="12.99"/>
			</g>
		</g>
	</g>
	<g>
		<g>
		</g>
		<g>
		</g>
	</g>
	<g>
		<g>
		</g>
		<text transform="matrix(1 0 0 1 896.7539 180.2051)" class="st2 st3 st7">U.S. total</text>
		<text transform="matrix(1 0 0 1 896.7539 225.3467)" class="st2 st3 st7">California</text>
	</g>
	<g>
		<text transform="matrix(1 0 0 1 707.6973 551.9238)" class="st2 st3 st4">2016</text>
		<text transform="matrix(1 0 0 1 641.1562 551.9238)" class="st2 st3 st4">2015</text>
		<text transform="matrix(1 0 0 1 574.1895 551.9238)" class="st2 st3 st4">2014</text>
		<text transform="matrix(1 0 0 1 507.3857 551.9238)" class="st2 st3 st4">2013</text>
		<text transform="matrix(1 0 0 1 440.4941 551.9238)" class="st2 st3 st4">2012</text>
		<text transform="matrix(1 0 0 1 374.6401 551.9238)" class="st2 st3 st4">2011</text>
		<text transform="matrix(1 0 0 1 306.2485 551.9238)" class="st2 st3 st4">2010</text>
		<text transform="matrix(1 0 0 1 238.0449 551.9238)" class="st2 st3 st4">2009</text>
		<text transform="matrix(1 0 0 1 171.2036 551.9238)" class="st2 st3 st4">2008</text>
		<text transform="matrix(1 0 0 1 105.8623 551.9238)"><tspan x="0" y="0" class="st2 st3 st4">20</tspan><tspan x="24.88" y="0" class="st2 st3 st4">0</tspan><tspan x="37.55" y="0" class="st2 st3 st4">7</tspan></text>
	</g>
</g>
<text transform="matrix(1 0 0 1 108.5205 67.5889)" class="st2 st8 st9">Releases of Prisoners from State or Federal Prisons</text>
<text transform="matrix(1 0 0 1 90.7397 615.2461)" class="st10 st11 st12">Source: Bureau of Justice</text>
<text transform="matrix(1 0 0 1 195.6025 155.5205)"><tspan x="0" y="0" class="st2 st3 st13">Starting in 2012, fewer prisoners were released both in California and in the U.S.</tspan><tspan x="0" y="21.6" class="st2 st3 st13">Changes in the state and federal sentencing laws have led shrinking prison populations.  </tspan></text>
<g>
	<g>
		<path class="st14" d="M504,187c13.98,22.73,14.98,40.87-1.68,60.43"/>
		<g>
			<polygon points="500.68,238.15 503.9,245.53 511.44,248.33 494,256 			"/>
		</g>
	</g>
</g>
</svg>
